<?xml version="1.0" encoding="UTF-8"?>
<svg version="1.1" xmlns="http://www.w3.org/2000/svg" width="431" height="431">
<path d="M0 0 C0.99 0.66 1.98 1.32 3 2 C8.42911168 7.1576561 12.54692004 11.59037291 13.3359375 19.26953125 C13.47214214 31.62329195 10.47146034 36.76639958 2.31640625 45.80078125 C0.01817456 47.98274489 -2.2743928 49.41240405 -5 51 C-5.309375 51.61875 -5.61875 52.2375 -5.9375 52.875 C-7.54494743 56.08989487 -10.21815181 57.78587593 -13 60 C-15.73013232 62.58867469 -18.04402366 65.45458933 -20.40234375 68.37890625 C-22 70 -22 70 -23.92578125 70.95703125 C-26.55118103 72.27714753 -28.21148373 74.01853318 -30.25 76.125 C-30.95640625 76.84945312 -31.6628125 77.57390625 -32.390625 78.3203125 C-32.92171875 78.87460938 -33.4528125 79.42890625 -34 80 C-33.67 80.99 -33.34 81.98 -33 83 C-29.34666522 84.09600043 -25.81563331 84.8611688 -22.0625 85.5 C-21.381875 85.665 -20.70125 85.83 -20 86 C-19.67 86.66 -19.34 87.32 -19 88 C-18.01 88.33 -17.02 88.66 -16 89 C-13 90 -13 90 -11 92 C-10.34 92.33 -9.68 92.66 -9 93 C-7 94 -7 94 -5 96 C-2.71661465 97.76778221 -0.40486384 99.39675744 2 101 C3 102 4 103 5 104 C5.825 104.61875 6.65 105.2375 7.5 105.875 C10 108 10 108 11.375 110.375 C13.63626941 114.02781982 16.68215563 116.3212486 20 119 C21.25569527 120.01381955 22.5058747 121.03451511 23.75 122.0625 C24.30171875 122.50722656 24.8534375 122.95195312 25.421875 123.41015625 C27 125 27 125 28.421875 127.38671875 C30.16015069 130.26520003 32.11728206 132.38316685 34.5 134.75 C35.2734375 135.52859375 36.046875 136.3071875 36.84375 137.109375 C38.94285879 139.19632617 38.94285879 139.19632617 42 140 C42.69800304 141.31719929 43.36059748 142.65337955 44 144 C45.63848223 145.95195837 45.63848223 145.95195837 47.5 147.75 C48.1084375 148.36359375 48.716875 148.9771875 49.34375 149.609375 C50.89484277 151.21434088 50.89484277 151.21434088 53 151 C55.42022645 154.22696859 57.31040047 157.00032273 58 161 C58.33 161.99 58.66 162.98 59 164 C59.95567686 171.6610817 58.03131428 178.44824732 53.76171875 184.859375 C50.67643979 188.71836169 47.68304544 191.43898485 43 193 C41.515 193.99 41.515 193.99 40 195 C25.35777336 195.39070745 18.35156938 191.77154998 8 182 C4.82185704 178.85903575 1.717136 175.65152352 -1.3828125 172.43359375 C-3.1447423 170.62979302 -4.90779874 168.82709222 -6.671875 167.02539062 C-9.40027313 164.23553989 -12.12205486 161.4405663 -14.82519531 158.6262207 C-29.17720187 143.70865 -41.87791075 131.77200981 -63.515625 130.8984375 C-65.34396285 130.87925913 -67.17291246 130.9297274 -69 131 C-68.01 131.66 -67.02 132.32 -66 133 C-67.08539063 133.12117187 -68.17078125 133.24234375 -69.2890625 133.3671875 C-70.73441404 133.53612469 -72.17972442 133.70541425 -73.625 133.875 C-74.33785156 133.95363281 -75.05070313 134.03226563 -75.78515625 134.11328125 C-80.08202185 134.62575146 -83.921207 135.46884427 -88 137 C-88 137.66 -88 138.32 -88 139 C-89.65 139.33 -91.3 139.66 -93 140 C-93 140.66 -93 141.32 -93 142 C-94.66220581 143.00739746 -96.33020674 144.00522955 -98 145 C-102.34565717 148.29014744 -105.20801937 151.30439622 -108 156 C-108.763125 156.45375 -109.52625 156.9075 -110.3125 157.375 C-113.32014339 159.19357507 -115.07542543 161.19439849 -117.27734375 163.890625 C-122.81752281 170.67451772 -128.74797699 176.82632469 -135 182.95703125 C-135.96406226 183.90903426 -136.9275939 184.86157487 -137.890625 185.81462097 C-141.94588761 189.82756561 -146.00379748 193.83770072 -150.078125 197.83129883 C-152.58373062 200.28793715 -155.07907935 202.75461427 -157.56835938 205.22778893 C-158.96025292 206.60519779 -160.36279791 207.97181707 -161.765625 209.33808899 C-172.61955175 220.14752307 -179.42134402 232.49201971 -180 248 C-180 264.82022741 -173.44463074 277.30345561 -162 289 C-159.54877765 291.31247392 -157.069241 293.54554848 -154.484375 295.70703125 C-152.47476516 297.56181266 -150.79553311 299.36856924 -149.03710938 301.44482422 C-144.25676092 306.94174425 -139.08318317 312.04152706 -133.921875 317.17578125 C-132.8626744 318.23311168 -131.80369813 319.29066688 -130.74493408 320.34843445 C-127.97992013 323.10966288 -125.21191705 325.86787516 -122.4432373 328.62542725 C-119.62178844 331.43660409 -116.8032027 334.25064842 -113.984375 337.06445312 C-109.03713959 342.00216126 -104.08744305 346.93739018 -99.13592529 351.87080383 C-97.86817938 353.13455577 -96.61551401 354.41424407 -95.39776611 355.72624207 C-93.90944939 357.25532756 -93.90944939 357.25532756 -91 358 C-90.34 358.66 -89.68 359.32 -89 360 C-88.01 360.33 -87.02 360.66 -86 361 C-83 362 -80 363 -77 364 C-77 364.66 -77 365.32 -77 366 C-64.46876057 368.99397628 -50.14247372 367.67358779 -38.875 361.375 C-29.75265212 355.35437628 -22.1644525 347.29031122 -14.5546875 339.51171875 C-12.8012242 337.73589064 -11.04730453 335.96051306 -9.29296875 334.18554688 C-6.57193572 331.42733049 -3.85413752 328.66618432 -1.14404297 325.8972168 C1.50158612 323.19701654 4.15982111 320.50976584 6.8203125 317.82421875 C7.62260284 316.99814621 8.42489319 316.17207367 9.25149536 315.32096863 C14.40727853 310.14148732 19.27185252 305.87656172 26.62060547 304.51416016 C27.36197754 304.52237793 28.10334961 304.5305957 28.8671875 304.5390625 C30.10082031 304.54486328 30.10082031 304.54486328 31.359375 304.55078125 C32.18953125 304.57527344 33.0196875 304.59976562 33.875 304.625 C34.72835938 304.62628906 35.58171875 304.62757813 36.4609375 304.62890625 C42.71801013 304.71801013 42.71801013 304.71801013 45 307 C45.99 307.66 46.98 308.32 48 309 C54.51383344 315.09358613 58.97111227 321.27239801 59.4375 330.375 C58.76260192 343.17629262 50.01310585 351.71444348 41 360 C40.34 360.33 39.68 360.66 39 361 C37.64567325 362.31200404 36.31266518 363.64631404 35 365 C34.34 365.66 33.68 366.32 33 367 C32.12200312 368.03040984 31.25033909 369.06622837 30.3828125 370.10546875 C26.74138372 374.37148989 22.83759533 378.34622879 18.875 382.3125 C18.17246094 383.02728516 17.46992188 383.74207031 16.74609375 384.47851562 C16.06417969 385.16236328 15.38226563 385.84621094 14.6796875 386.55078125 C13.76292236 387.47370972 13.76292236 387.47370972 12.82763672 388.4152832 C10.97639165 390.02047045 9.17979549 390.9159228 7 392 C6.690625 392.66 6.38125 393.32 6.0625 394 C4.60431092 396.7448265 2.82450302 396.91365269 0 398 C-0.33 398.99 -0.66 399.98 -1 401 C-2.65204456 401.70211894 -4.31923769 402.36971413 -6 403 C-6.33 403.66 -6.66 404.32 -7 405 C-7.99 405.33 -8.98 405.66 -10 406 C-12.24335542 406.981468 -13.79624646 407.78775673 -15.5 409.5625 C-17.30121345 411.28866289 -18.59680506 411.47430111 -21 412 C-21.99 412.66 -22.98 413.32 -24 414 C-26.32387947 414.39387788 -28.65793749 414.73486085 -31 415 C-31 415.66 -31 416.32 -31 417 C-58.59784682 421.03073815 -84.62214805 421.68781968 -110.25 409.25 C-110.85062256 408.96366699 -111.45124512 408.67733398 -112.07006836 408.38232422 C-123.82842459 402.38094245 -133.2092123 393.22032118 -142.37109375 383.921875 C-143.50715152 382.78020027 -144.64388957 381.63920211 -145.78126526 380.49884033 C-148.74017479 377.52861235 -151.68996443 374.54949374 -154.63775635 371.5682373 C-157.64034978 368.53479008 -160.65158516 365.50994792 -163.66210938 362.484375 C-168.95002624 357.16794342 -174.23046151 351.84418308 -179.50535583 346.51483154 C-183.77466745 342.21097143 -188.07567594 337.94493867 -192.421875 333.71875 C-193.99509484 332.17512582 -195.56633201 330.62951398 -197.13671875 329.08300781 C-198.20143735 328.0382688 -199.26973556 326.99716382 -200.34179688 325.95996094 C-210.13049542 316.47980605 -218.36019537 306.38218173 -224.3125 294 C-224.63879395 293.33121826 -224.96508789 292.66243652 -225.30126953 291.97338867 C-237.36812972 266.56295948 -236.66746446 237.91595828 -227.50390625 211.765625 C-217.90136091 186.8600375 -196.84498443 168.70005171 -178.39111328 150.21411133 C-176.77625625 148.59297013 -175.1615817 146.97164715 -173.54707336 145.35015869 C-168.30831433 140.09062649 -163.06446331 134.83618652 -157.8203125 129.58203125 C-156.0045758 127.76223995 -154.18887039 125.94241743 -152.37319565 124.12256432 C-144.82563755 116.55819237 -137.27699601 108.99490614 -129.72467232 101.43529224 C-127.77900354 99.48771436 -125.83334046 97.54013079 -123.88769531 95.5925293 C-123.40425938 95.10860962 -122.92082345 94.62468995 -122.42273794 94.12610605 C-114.56209798 86.25713499 -106.71003667 78.37966054 -98.86143292 70.49868623 C-90.77303495 62.37720389 -82.67695548 54.26345946 -74.57376087 46.15673655 C-70.03599724 41.61662442 -65.5015891 37.07327713 -60.97525406 32.52176857 C-56.72722438 28.25048538 -52.46980349 23.98879336 -48.20499229 19.73426819 C-46.64387468 18.17364632 -45.08616593 16.60960578 -43.53217125 15.0418911 C-41.40788926 12.8999079 -39.27157611 10.77067547 -37.13186646 8.64411926 C-36.52271239 8.02399596 -35.91355833 7.40387265 -35.28594506 6.76495773 C-29.06748775 0.63817548 -23.14271347 -2.42226446 -14.3125 -2.8125 C-12.41951172 -2.91498047 -12.41951172 -2.91498047 -10.48828125 -3.01953125 C-2.97747748 -2.97747748 -2.97747748 -2.97747748 0 0 Z " fill="#FEFEFE" transform="translate(274,7)"/>
<path d="M0 0 C0.70125 0.28875 1.4025 0.5775 2.125 0.875 C4.42031559 2.25218936 5.02079402 3.55198504 6 6 C6.66 6 7.32 6 8 6 C13.79346773 13.78497226 15.08034131 20.41057866 14 30 C11.89540878 36.69314204 8.63419235 40.9580794 3 45 C2.2575 45.86625 2.2575 45.86625 1.5 46.75 C-2.41225245 50.01021037 -8.92958298 49.15047673 -13.798172 49.15390015 C-14.5646563 49.1582824 -15.3311406 49.16266465 -16.1208517 49.1671797 C-18.67928461 49.18049301 -21.23768314 49.18672957 -23.79614258 49.19287109 C-25.63461968 49.20077773 -27.47309525 49.20904703 -29.31156921 49.21765137 C-35.3392083 49.24379862 -41.36685409 49.25916812 -47.39453125 49.2734375 C-49.47269889 49.2787995 -51.55086648 49.28417701 -53.62903404 49.28956985 C-62.27366567 49.31118464 -70.91829549 49.32992148 -79.56294727 49.34119225 C-91.93828383 49.35743577 -104.3133067 49.39063958 -116.68852502 49.44759309 C-125.39869337 49.48630963 -134.10877786 49.50582677 -142.81902999 49.51111281 C-148.01782534 49.51476283 -153.21628556 49.5267481 -158.41498756 49.55921555 C-163.30625313 49.58932755 -168.19698125 49.59559678 -173.08831978 49.58383179 C-174.87934118 49.58361134 -176.67038778 49.59189238 -178.46132278 49.60948563 C-188.64370713 49.70403739 -197.13207568 49.73121342 -204.82740498 42.21516991 C-210.99326639 35.63067367 -212.62643015 29.46112086 -212.41015625 20.546875 C-211.51940618 12.84400776 -208.00200273 7.20320129 -202.13671875 2.25390625 C-196.28845642 -1.17807219 -190.79876653 -2.44602555 -184.07952881 -2.40545654 C-183.32414204 -2.41280894 -182.56875527 -2.42016133 -181.79047799 -2.42773652 C-179.28174079 -2.44858177 -176.77346532 -2.44844292 -174.26464844 -2.44824219 C-172.45716583 -2.45890491 -170.64969043 -2.47085582 -168.84222412 -2.48399353 C-163.95001724 -2.51578132 -159.0579157 -2.52922303 -154.16562176 -2.53904247 C-149.04251435 -2.55217194 -143.91949651 -2.5813074 -138.79644775 -2.60845947 C-130.19862683 -2.65171758 -121.60082318 -2.68385477 -113.00292969 -2.70849609 C-101.96382855 -2.74019495 -90.92489235 -2.79041259 -79.88589096 -2.84641647 C-70.39363296 -2.89440956 -60.90134189 -2.93374223 -51.4090395 -2.97177219 C-48.35750448 -2.98438273 -45.30597681 -2.99821868 -42.25444794 -3.01222992 C-37.46428922 -3.0336878 -32.67414112 -3.04974396 -27.88394928 -3.06158638 C-26.12470409 -3.06669984 -24.36546295 -3.07353586 -22.60623169 -3.08220482 C-20.20831864 -3.0936964 -17.81047267 -3.09891726 -15.41253662 -3.10247803 C-14.71371046 -3.10723546 -14.0148843 -3.11199289 -13.29488158 -3.11689448 C-8.1226621 -3.11402115 -4.53126531 -2.4072347 0 0 Z " fill="#B4B2B1" transform="translate(383,233)"/>
<path d="M0 0 C0.82242188 0.00386719 1.64484375 0.00773437 2.4921875 0.01171875 C3.32234375 0.03621094 4.1525 0.06070312 5.0078125 0.0859375 C6.28785156 0.08787109 6.28785156 0.08787109 7.59375 0.08984375 C13.85082263 0.17894763 13.85082263 0.17894763 16.1328125 2.4609375 C17.1228125 3.1209375 18.1128125 3.7809375 19.1328125 4.4609375 C25.64664594 10.55452363 30.10392477 16.73333551 30.5703125 25.8359375 C29.89541442 38.63723012 21.14591835 47.17538098 12.1328125 55.4609375 C11.1428125 55.9559375 11.1428125 55.9559375 10.1328125 56.4609375 C8.77848575 57.77294154 7.44547768 59.10725154 6.1328125 60.4609375 C5.1428125 61.4509375 5.1428125 61.4509375 4.1328125 62.4609375 C3.25481562 63.49134734 2.38315159 64.52716587 1.515625 65.56640625 C-2.12580378 69.83242739 -6.02959217 73.80716629 -9.9921875 77.7734375 C-10.69472656 78.48822266 -11.39726562 79.20300781 -12.12109375 79.93945312 C-12.80300781 80.62330078 -13.48492187 81.30714844 -14.1875 82.01171875 C-14.79867676 82.62700439 -15.40985352 83.24229004 -16.03955078 83.8762207 C-17.89079585 85.48140795 -19.68739201 86.3768603 -21.8671875 87.4609375 C-22.1765625 88.1209375 -22.4859375 88.7809375 -22.8046875 89.4609375 C-24.26287658 92.205764 -26.04268448 92.37459019 -28.8671875 93.4609375 C-29.3621875 94.9459375 -29.3621875 94.9459375 -29.8671875 96.4609375 C-31.51923206 97.16305644 -33.18642519 97.83065163 -34.8671875 98.4609375 C-35.1971875 99.1209375 -35.5271875 99.7809375 -35.8671875 100.4609375 C-37.3521875 100.9559375 -37.3521875 100.9559375 -38.8671875 101.4609375 C-41.11054292 102.4424055 -42.66343396 103.24869423 -44.3671875 105.0234375 C-46.16840095 106.74960039 -47.46399256 106.93523861 -49.8671875 107.4609375 C-50.8571875 108.1209375 -51.8471875 108.7809375 -52.8671875 109.4609375 C-55.19106697 109.85481538 -57.52512499 110.19579835 -59.8671875 110.4609375 C-59.8671875 111.1209375 -59.8671875 111.7809375 -59.8671875 112.4609375 C-87.7009008 116.52612457 -113.76292553 117.07870411 -139.5546875 104.4609375 C-140.2139624 104.14108887 -140.8732373 103.82124023 -141.55249023 103.49169922 C-145.79385717 101.31756696 -148.70742007 98.9409108 -151.8671875 95.4609375 C-149.09428091 94.0744842 -146.89624557 94.47746178 -143.8046875 94.5859375 C-138.22861592 94.62302889 -132.7429949 94.45113518 -127.8671875 91.4609375 C-126.71820021 89.51715066 -126.71820021 89.51715066 -125.8671875 87.4609375 C-125.2278125 86.7184375 -124.5884375 85.9759375 -123.9296875 85.2109375 C-118.08820547 77.42229479 -118.51078166 69.8594915 -118.8671875 60.4609375 C-118.15046875 60.6053125 -117.43375 60.7496875 -116.6953125 60.8984375 C-106.07257068 63.01124803 -95.66836843 63.97462841 -84.8671875 64.4609375 C-84.8671875 63.8009375 -84.8671875 63.1409375 -84.8671875 62.4609375 C-84.11695313 62.31398438 -83.36671875 62.16703125 -82.59375 62.015625 C-65.67641513 58.30829973 -55.18506255 46.99681759 -43.421875 34.97265625 C-41.6684117 33.19682814 -39.91449203 31.42145056 -38.16015625 29.64648438 C-35.43912322 26.88826799 -32.72132502 24.12712182 -30.01123047 21.3581543 C-27.36560138 18.65795404 -24.70736639 15.97070334 -22.046875 13.28515625 C-20.84343948 12.04604744 -20.84343948 12.04604744 -19.61569214 10.78190613 C-14.07326269 5.21400135 -8.30397406 -0.09204579 0 0 Z " fill="#EBA443" transform="translate(302.8671875,311.5390625)"/>
<path d="M0 0 C1.36129806 0.3257933 2.71483838 0.68777674 4.05322266 1.09765625 C5.55369141 1.32775391 5.55369141 1.32775391 7.08447266 1.5625 C8.30650391 1.79646484 8.30650391 1.79646484 9.55322266 2.03515625 C10.38853516 2.18855469 11.22384766 2.34195313 12.08447266 2.5 C13.05900391 2.79583984 13.05900391 2.79583984 14.05322266 3.09765625 C14.54822266 4.08765625 14.54822266 4.08765625 15.05322266 5.09765625 C16.04322266 5.42765625 17.03322266 5.75765625 18.05322266 6.09765625 C21.05322266 7.09765625 21.05322266 7.09765625 23.05322266 9.09765625 C24.04322266 9.59265625 24.04322266 9.59265625 25.05322266 10.09765625 C27.05322266 11.09765625 27.05322266 11.09765625 29.05322266 13.09765625 C31.33660801 14.86543846 33.64835882 16.49441369 36.05322266 18.09765625 C37.05322266 19.09765625 38.05322266 20.09765625 39.05322266 21.09765625 C39.87822266 21.71640625 40.70322266 22.33515625 41.55322266 22.97265625 C44.05322266 25.09765625 44.05322266 25.09765625 45.42822266 27.47265625 C47.68949207 31.12547607 50.73537828 33.41890485 54.05322266 36.09765625 C55.30891793 37.1114758 56.55909736 38.13217136 57.80322266 39.16015625 C58.35494141 39.60488281 58.90666016 40.04960937 59.47509766 40.5078125 C61.05322266 42.09765625 61.05322266 42.09765625 62.47509766 44.484375 C64.21337335 47.36285628 66.17050472 49.4808231 68.55322266 51.84765625 C69.32666016 52.62625 70.10009766 53.40484375 70.89697266 54.20703125 C72.99608144 56.29398242 72.99608144 56.29398242 76.05322266 57.09765625 C76.7512257 58.41485554 77.41382014 59.7510358 78.05322266 61.09765625 C79.69170488 63.04961462 79.69170488 63.04961462 81.55322266 64.84765625 C82.16166016 65.46125 82.77009766 66.07484375 83.39697266 66.70703125 C84.94806543 68.31199713 84.94806543 68.31199713 87.05322266 68.09765625 C89.4734491 71.32462484 91.36362313 74.09797898 92.05322266 78.09765625 C92.38322266 79.08765625 92.71322266 80.07765625 93.05322266 81.09765625 C94.00889951 88.75873795 92.08453694 95.54590357 87.81494141 101.95703125 C84.72966245 105.81601794 81.73626809 108.5366411 77.05322266 110.09765625 C76.06322266 110.75765625 75.07322266 111.41765625 74.05322266 112.09765625 C59.41082574 112.48836824 52.40516588 108.86907581 42.05322266 99.09765625 C38.88680564 95.96838881 35.79379123 92.77263176 32.70556641 89.56640625 C30.94819767 87.7671592 29.18969802 85.96901615 27.43017578 84.171875 C24.71061421 81.39092212 21.99765408 78.6048742 19.3034668 75.79931641 C8.47966335 64.54699445 -1.41991635 55.17617908 -15.94677734 49.09765625 C-15.94677734 48.43765625 -15.94677734 47.77765625 -15.94677734 47.09765625 C-20.28005318 47.03917142 -24.6132262 47.00389709 -28.94677734 46.97265625 C-30.77789062 46.94751953 -30.77789062 46.94751953 -32.64599609 46.921875 C-39.11656404 46.88689896 -44.76524148 47.13501861 -50.94677734 49.09765625 C-49.02586907 44.90312442 -47.00795933 41.76277324 -43.80175781 38.45336914 C-42.9701413 37.5897023 -42.13852478 36.72603546 -41.28170776 35.8361969 C-40.3848526 34.92345505 -39.48799744 34.0107132 -38.56396484 33.0703125 C-38.10354923 32.60016661 -37.64313362 32.13002071 -37.16876602 31.64562798 C-34.73529344 29.16154756 -32.29309363 26.68645005 -29.84326172 24.21850586 C-27.32241212 21.67556052 -24.83325013 19.10379527 -22.35003471 16.52416325 C-20.42616054 14.53678498 -18.48022022 12.57216123 -16.52768326 10.61297417 C-15.15080316 9.21993643 -13.79787857 7.80335111 -12.44552612 6.38648987 C-5.41769723 -0.56756991 -5.41769723 -0.56756991 0 0 Z " fill="#EBA544" transform="translate(239.94677734375,89.90234375)"/>
<path d="M0 0 C0.70125 0.28875 1.4025 0.5775 2.125 0.875 C4.42031559 2.25218936 5.02079402 3.55198504 6 6 C6.66 6 7.32 6 8 6 C13.79346773 13.78497226 15.08034131 20.41057866 14 30 C11.91486702 36.63125981 8.66070545 41.05067062 3 45 C3 41.39351969 3.89987686 40.34770529 5.9375 37.4375 C10.48117111 30.89590259 10.66848307 25.98516764 10 18 C8.57603953 12.86488866 6.34870295 8.23046505 2 5 C-3.09672789 2.44030677 -7.22430597 1.56251653 -12.94966125 1.60559082 C-14.10573632 1.59645416 -14.10573632 1.59645416 -15.28516644 1.58713293 C-17.8521286 1.57056442 -20.41859136 1.57526985 -22.9855957 1.58007812 C-24.83245354 1.57273415 -26.67930678 1.56414697 -28.52615356 1.55441284 C-33.53248993 1.53222114 -38.53866157 1.52926504 -43.54504037 1.53116035 C-47.7297566 1.53128018 -51.91443809 1.52271101 -56.09914464 1.51438284 C-65.9755439 1.49515667 -75.85185864 1.49226187 -85.72827148 1.49902344 C-95.90361493 1.50566174 -106.07859565 1.48280644 -116.25386554 1.44570971 C-125.00145785 1.41497975 -133.74893369 1.40365632 -142.49657887 1.40754652 C-147.71603937 1.40961084 -152.93521765 1.4041839 -158.15462685 1.37965393 C-163.0656476 1.35733533 -167.97608021 1.35930717 -172.88710403 1.37958145 C-174.68414075 1.3829826 -176.48121746 1.37794115 -178.27820015 1.36359787 C-187.79662021 1.29289683 -195.86861985 1.38217857 -204 7 C-204.99 7.66 -205.98 8.32 -207 9 C-205.55767936 5.42521604 -203.83879097 3.88918552 -200.625 1.8125 C-199.85414063 1.30332031 -199.08328125 0.79414063 -198.2890625 0.26953125 C-193.84257578 -2.19652367 -189.55372644 -2.15313117 -184.56054688 -2.16494751 C-183.43259327 -2.17341282 -183.43259327 -2.17341282 -182.28185272 -2.18204916 C-179.76082494 -2.19975578 -177.23981643 -2.21046511 -174.71875 -2.22119141 C-172.91186267 -2.23240808 -171.10497788 -2.24404037 -169.2980957 -2.25605774 C-164.38914819 -2.28738711 -159.48018687 -2.31250921 -154.57119751 -2.3362546 C-150.4755403 -2.35666876 -146.37990362 -2.38021047 -142.28426361 -2.40379179 C-132.62442498 -2.4594077 -122.96456931 -2.51013426 -113.3046875 -2.55761719 C-103.3321819 -2.60670206 -93.35973621 -2.66300713 -83.38729095 -2.72303832 C-74.83012473 -2.77435249 -66.27294319 -2.82169449 -57.71573639 -2.86572587 C-52.60271195 -2.89204446 -47.48970538 -2.91976736 -42.37670898 -2.9510994 C-37.57019531 -2.98033891 -32.76368188 -3.00460176 -27.9571228 -3.02499962 C-26.19142747 -3.03331253 -24.42573938 -3.04337159 -22.6600647 -3.05528831 C-20.25318854 -3.0712511 -17.84636678 -3.08094232 -15.43945312 -3.08901978 C-14.73789848 -3.09514145 -14.03634384 -3.10126312 -13.31352997 -3.10757029 C-8.12966159 -3.11459218 -4.54072632 -2.41226086 0 0 Z " fill="#BCBAB8" transform="translate(383,233)"/>
<path d="M0 0 C0.495 1.485 0.495 1.485 1 3 C1.78503906 2.67386719 2.57007813 2.34773437 3.37890625 2.01171875 C7.98894199 0.72369366 12.17887683 0.74567528 16.9375 0.8125 C17.80568359 0.81314453 18.67386719 0.81378906 19.56835938 0.81445312 C24.47754178 0.84784892 29.16005388 1.17687991 34 2 C34 2.66 34 3.32 34 4 C28.39 3.67 22.78 3.34 17 3 C17.495 3.495 17.495 3.495 18 4 C18 4.33 18 4.66 18 5 C16.37191406 5.18175781 16.37191406 5.18175781 14.7109375 5.3671875 C13.26558596 5.53612469 11.82027558 5.70541425 10.375 5.875 C9.66214844 5.95363281 8.94929688 6.03226563 8.21484375 6.11328125 C3.91797815 6.62575146 0.078793 7.46884427 -4 9 C-4 9.66 -4 10.32 -4 11 C-5.65 11.33 -7.3 11.66 -9 12 C-9 12.66 -9 13.32 -9 14 C-10.66220581 15.00739746 -12.33020674 16.00522955 -14 17 C-18.34565717 20.29014744 -21.20801937 23.30439622 -24 28 C-25.1446875 28.680625 -25.1446875 28.680625 -26.3125 29.375 C-29.32014339 31.19357507 -31.07542543 33.19439849 -33.27734375 35.890625 C-38.81752281 42.67451772 -44.74797699 48.82632469 -51 54.95703125 C-51.96406226 55.90903426 -52.9275939 56.86157487 -53.890625 57.81462097 C-57.94588761 61.82756561 -62.00379748 65.83770072 -66.078125 69.83129883 C-68.58373062 72.28793715 -71.07907935 74.75461427 -73.56835938 77.22778893 C-74.96025292 78.60519779 -76.36279791 79.97181707 -77.765625 81.33808899 C-88.66920184 92.19696963 -95.32560271 104.45514258 -96 120 C-96.33 120 -96.66 120 -97 120 C-97 125.61 -97 131.22 -97 137 C-101.92568457 129.61147314 -100.83410684 118.76847826 -99.3515625 110.29296875 C-94.10401059 89.95309874 -77.4821535 76.32838434 -63.14453125 62.01171875 C-61.51252407 60.37903673 -59.88066526 58.74620639 -58.24894714 57.11323547 C-54.84572709 53.70854859 -51.44072386 50.30565809 -48.03442383 46.90405273 C-43.67671921 42.55206301 -39.32354448 38.1955741 -34.97168446 33.8377409 C-31.60971364 30.47215251 -28.24535979 27.10895441 -24.88028526 23.7464695 C-23.27404148 22.14089073 -21.66853449 20.53457451 -20.06379128 18.92749596 C-17.82204248 16.68319898 -15.57709836 14.44214686 -13.33129883 12.2019043 C-12.34693344 11.21450256 -12.34693344 11.21450256 -11.34268188 10.20715332 C-7.70890224 6.58995694 -3.99165118 3.21914774 0 0 Z " fill="#F7F6F7" transform="translate(190,135)"/>
<path d="M0 0 C0.70125 0.28875 1.4025 0.5775 2.125 0.875 C4.42031559 2.25218936 5.02079402 3.55198504 6 6 C6.66 6 7.32 6 8 6 C13.79346773 13.78497226 15.08034131 20.41057866 14 30 C11.91486702 36.63125981 8.66070545 41.05067062 3 45 C3 41.39351969 3.89987686 40.34770529 5.9375 37.4375 C10.48117111 30.89590259 10.66848307 25.98516764 10 18 C8.57603953 12.86488866 6.34870295 8.23046505 2 5 C-0.30263326 3.8561433 -2.59411508 2.92534035 -5 2 C-5 1.34 -5 0.68 -5 0 C-66.71 -0.33 -128.42 -0.66 -192 -1 C-192 -1.33 -192 -1.66 -192 -2 C-168.07849826 -2.15385958 -144.15696664 -2.30189404 -120.23538589 -2.4429636 C-109.1285845 -2.50859859 -98.0218009 -2.57615117 -86.91503906 -2.64819336 C-77.236186 -2.71096882 -67.55731887 -2.77017153 -57.87841773 -2.82505554 C-52.75191414 -2.8542508 -47.62543566 -2.8852544 -42.49897003 -2.92053413 C-37.67609705 -2.95366819 -32.85321979 -2.98203358 -28.03029633 -3.00670624 C-26.2581525 -3.01661908 -24.48601753 -3.02828971 -22.71389771 -3.04183006 C-20.29805386 -3.06002859 -17.88225803 -3.07195506 -15.46636963 -3.08229065 C-14.76208651 -3.08909444 -14.05780339 -3.09589823 -13.33217835 -3.10290819 C-8.13849825 -3.11485251 -4.54887224 -2.41658838 0 0 Z " fill="#F3F2F2" transform="translate(383,233)"/>
<path d="M0 0 C1.30710937 -0.00483398 1.30710937 -0.00483398 2.640625 -0.00976562 C9.10779542 0.04529542 9.10779542 0.04529542 11.375 2.3125 C12.365 2.9725 13.355 3.6325 14.375 4.3125 C20.88883344 10.40608613 25.34611227 16.58489801 25.8125 25.6875 C25.13760192 38.48879262 16.38810585 47.02694348 7.375 55.3125 C6.385 55.8075 6.385 55.8075 5.375 56.3125 C4.02067325 57.62450404 2.68766518 58.95881404 1.375 60.3125 C0.715 60.9725 0.055 61.6325 -0.625 62.3125 C-1.50299688 63.34290984 -2.37466091 64.37872837 -3.2421875 65.41796875 C-6.88361628 69.68398989 -10.78740467 73.65872879 -14.75 77.625 C-15.80380859 78.69717773 -15.80380859 78.69717773 -16.87890625 79.79101562 C-17.56082031 80.47486328 -18.24273437 81.15871094 -18.9453125 81.86328125 C-19.55648926 82.47856689 -20.16766602 83.09385254 -20.79736328 83.7277832 C-22.64891554 85.33323682 -24.44378255 86.23002798 -26.625 87.3125 C-27.12 88.3025 -27.12 88.3025 -27.625 89.3125 C-28.87008396 91.80266793 -30.09216796 92.29936718 -32.625 93.3125 C-32.625 90.3125 -32.625 90.3125 -30.79168701 88.14533997 C-29.93327209 87.3056517 -29.07485718 86.46596344 -28.19042969 85.60083008 C-27.7189299 85.13531738 -27.24743011 84.66980469 -26.76164246 84.19018555 C-25.73523488 83.17855646 -24.70542075 82.17037491 -23.67266083 81.1652317 C-22.03427002 79.56975644 -20.40586682 77.96468751 -18.77984619 76.35661316 C-14.1541255 71.78593498 -9.50911469 67.23500195 -4.86181641 62.6862793 C-2.01985646 59.90326117 0.812062 57.11032329 3.63857269 54.31162071 C5.23500088 52.73723258 6.84271329 51.17501664 8.45098877 49.61274719 C15.71826085 42.46842621 21.40248618 35.76051553 21.6875 25.125 C21.61356982 18.12935645 19.38446176 13.97208175 15.25 8.5 C11.79969461 5.87476764 8.6481608 4.95004979 4.484375 3.890625 C2.375 3.3125 2.375 3.3125 1.375 2.3125 C-3.69954515 1.9492694 -8.64157457 2.29025889 -13.625 3.3125 C-9.76685505 -0.77196071 -5.21864227 -0.09736273 0 0 Z " fill="#FAF3E9" transform="translate(307.625,311.6875)"/>
<path d="M0 0 C0.495 1.485 0.495 1.485 1 3 C1.78503906 2.67386719 2.57007813 2.34773437 3.37890625 2.01171875 C7.98894199 0.72369366 12.17887683 0.74567528 16.9375 0.8125 C17.80568359 0.81314453 18.67386719 0.81378906 19.56835938 0.81445312 C24.47754178 0.84784892 29.16005388 1.17687991 34 2 C34 2.66 34 3.32 34 4 C28.39 3.67 22.78 3.34 17 3 C17.495 3.495 17.495 3.495 18 4 C18 4.33 18 4.66 18 5 C16.37191406 5.18175781 16.37191406 5.18175781 14.7109375 5.3671875 C13.26558596 5.53612469 11.82027558 5.70541425 10.375 5.875 C9.66214844 5.95363281 8.94929688 6.03226563 8.21484375 6.11328125 C3.91797815 6.62575146 0.078793 7.46884427 -4 9 C-4 9.66 -4 10.32 -4 11 C-5.65 11.33 -7.3 11.66 -9 12 C-9 12.66 -9 13.32 -9 14 C-10.66220581 15.00739746 -12.33020674 16.00522955 -14 17 C-18.34565717 20.29014744 -21.20801937 23.30439622 -24 28 C-25.04160278 28.58164917 -25.04160278 28.58164917 -26.10424805 29.17504883 C-30.19350818 31.75216876 -33.32550488 35.08004206 -36.70703125 38.51171875 C-37.43242599 39.23994339 -38.15782074 39.96816803 -38.90519714 40.71846008 C-41.21238286 43.03680702 -43.51250216 45.36202408 -45.8125 47.6875 C-47.37909567 49.26413069 -48.94614791 50.84030786 -50.51367188 52.41601562 C-54.34775396 56.27210425 -58.17606363 60.13385144 -62 64 C-62.66 63.67 -63.32 63.34 -64 63 C-56.54433495 55.52112448 -49.08594129 48.04498188 -41.62409019 40.57227802 C-38.15902728 37.10200531 -34.69489717 33.63081218 -31.23291016 30.1574707 C-27.88942144 26.80308539 -24.54346792 23.45117675 -21.19581985 20.10094261 C-19.92157247 18.82485317 -18.64820288 17.54788655 -17.37574387 16.27001381 C-15.58796351 14.47493311 -13.79703565 12.68304849 -12.00537109 10.8918457 C-11.48459991 10.36747925 -10.96382874 9.84311279 -10.42727661 9.30285645 C-7.10408199 5.98886707 -3.64350895 2.95926809 0 0 Z " fill="#EEEEEE" transform="translate(190,135)"/>
<path d="M0 0 C4.79281277 3.98918192 9.28628666 8.16468881 13.65039062 12.61621094 C14.58603096 13.56367943 14.58603096 13.56367943 15.54057312 14.5302887 C16.88270875 15.88950397 18.22378439 17.24976658 19.56388855 18.6109848 C22.41911845 21.50855643 25.28391296 24.39659305 28.14813995 27.28526688 C33.4686984 32.65143541 38.78530007 38.02137982 44.08544922 43.40771484 C47.78499011 47.16667508 51.4966517 50.91328344 55.21659851 54.6520462 C56.62770533 56.07487977 58.03427034 57.50223303 59.43611145 58.93419647 C61.39583386 60.93498249 63.37065191 62.91963 65.34960938 64.90136719 C65.92124313 65.49254837 66.49287689 66.08372955 67.08183289 66.69282532 C70.90572699 70.47873313 73.78318935 71.76687863 79 73 C79.33 73.66 79.66 74.32 80 75 C82.57437581 75.91280138 82.57437581 75.91280138 85.5625 76.625 C87.08037109 77.01558594 87.08037109 77.01558594 88.62890625 77.4140625 C89.41136719 77.60742188 90.19382812 77.80078125 91 78 C91 78.66 91 79.32 91 80 C95.42682491 81.0390378 99.78934632 81.31592951 104.3125 81.5625 C105.42334961 81.62727539 105.42334961 81.62727539 106.55664062 81.69335938 C108.37091464 81.79870432 110.1854355 81.89978316 112 82 C112 82.33 112 82.66 112 83 C88.5146434 83.50087253 88.5146434 83.50087253 78 79 C77.67 79.66 77.34 80.32 77 81 C76.65039152 80.50828245 76.30078304 80.0165649 75.94058037 79.50994682 C72.25386034 74.44525248 68.26151986 69.99445901 63.80126953 65.60595703 C63.10788986 64.91549789 62.41451019 64.22503876 61.70011902 63.51365662 C60.2078843 62.02898092 58.7133454 60.54661814 57.21670914 59.06637955 C54.85067959 56.72602833 52.49108775 54.37935292 50.13302612 52.03097534 C45.13595415 47.05666205 40.13103165 42.09029421 35.125 37.125 C29.30216313 31.3493307 23.48257079 25.57046857 17.67129135 19.78316879 C15.34195119 17.46683041 13.00669122 15.15657284 10.6711731 12.84646606 C9.25461072 11.43716318 7.83832527 10.02758188 6.42236328 8.61767578 C5.76788712 7.97353226 5.11341095 7.32938873 4.43910217 6.66572571 C2.9209791 5.1479662 1.4544761 3.57885746 0 2 C0 1.34 0 0.68 0 0 Z " fill="#E3E3E3" transform="translate(106,293)"/>
<path d="M0 0 C2.76276177 0.52268466 5.3260876 1.10869587 8 2 C8 2.66 8 3.32 8 4 C32.20904314 4.07013627 56.41807102 4.12301084 80.62719536 4.15543652 C91.86836014 4.17089368 103.10946172 4.19196126 114.35058594 4.22631836 C124.15037521 4.25625588 133.9501187 4.27558336 143.74995244 4.28226548 C148.93704657 4.28617035 154.12400976 4.29532346 159.31106186 4.31719017 C164.19804087 4.33762405 169.08483558 4.34381986 173.97185326 4.33932304 C175.76082678 4.34014516 177.54980676 4.34606954 179.33874321 4.35761642 C192.43405609 4.45308525 192.43405609 4.45308525 205 1 C205 1.99 205 2.98 205 4 C200.30951558 5.83825988 196.10735181 6.2909651 191.12590027 6.27415466 C190.35124886 6.27939134 189.57659746 6.28462802 188.77847177 6.29002339 C186.19234961 6.30498069 183.60642605 6.30572759 181.02026367 6.30639648 C179.16208056 6.31402081 177.30390061 6.32244878 175.44572449 6.33161926 C170.40430784 6.35354343 165.36295184 6.36236031 160.32149291 6.36744571 C157.1698553 6.37109157 154.01823352 6.37733281 150.86660194 6.3844471 C139.86605762 6.40893382 128.86556041 6.42199193 117.86499023 6.42553711 C107.61979423 6.42917234 97.3748978 6.4590689 87.12979335 6.50094169 C78.32619712 6.53565829 69.52270013 6.55108578 60.71903592 6.55178314 C55.46436665 6.55257545 50.21000267 6.56129309 44.95540428 6.58978081 C40.01159052 6.61598497 35.06833471 6.61815344 30.12448311 6.60212517 C28.31411903 6.60031259 26.50372268 6.6069841 24.69342804 6.62294388 C7.11456581 6.7684248 7.11456581 6.7684248 0 1 C0 0.67 0 0.34 0 0 Z " fill="#DFDEDE" transform="translate(180,276)"/>
<path d="M0 0 C0.43570312 0.37511719 0.87140625 0.75023437 1.3203125 1.13671875 C4.29970656 3.69693399 7.28548144 6.24616983 10.3125 8.75 C13.160411 11.13429758 15.51314328 13.59225809 17.875 16.4375 C20.07783447 19.03064252 22.2548583 20.98689609 25 23 C29.68769236 27.97179492 32.08835136 33.56058163 32.4375 40.375 C32.13080834 48.44656696 28.55193848 55.30926306 23 61 C20.55786397 63.08299838 19.07240809 63.97586397 16 65 C14.515 65.99 14.515 65.99 13 67 C9.85546875 67.046875 9.85546875 67.046875 6.1875 66.75 C4.98480469 66.66234375 3.78210938 66.5746875 2.54296875 66.484375 C-0.86122278 66.01897285 -3.78929163 65.19971339 -7 64 C-4.00621303 63.1231013 -1.42451388 62.91981929 1.6875 63 C6.5440209 63.05772982 11.18522475 62.62126132 16 62 C16 61.34 16 60.68 16 60 C16.7425 59.773125 17.485 59.54625 18.25 59.3125 C21.61253211 57.70765513 22.90972484 56.0657369 25 53 C25.5775 52.175 26.155 51.35 26.75 50.5 C28.93631825 44.37830889 29.16559718 37.75581312 27.2265625 31.5078125 C24.31223253 25.69982157 19.71934453 21.4578995 15.01171875 17.06640625 C13 15 13 15 13 13 C12.43796875 12.7628125 11.8759375 12.525625 11.296875 12.28125 C8.48105958 10.71052303 6.52044584 8.78528536 4.25 6.5 C3.45078125 5.7059375 2.6515625 4.911875 1.828125 4.09375 C0 2 0 2 0 0 Z " fill="#FAF6F0" transform="translate(301,135)"/>
<path d="M0 0 C62.04 0 124.08 0 188 0 C188 0.33 188 0.66 188 1 C125.96 1 63.92 1 0 1 C0 0.67 0 0.34 0 0 Z " fill="#FEFEFE" transform="translate(189,283)"/>
<path d="M0 0 C60.72 0 121.44 0 184 0 C184 0.33 184 0.66 184 1 C123.28 1 62.56 1 0 1 C0 0.67 0 0.34 0 0 Z " fill="#FEFEFE" transform="translate(191,229)"/>
<path d="M0 0 C0 0.66 0 1.32 0 2 C-1.98 2.33 -3.96 2.66 -6 3 C-6 3.66 -6 4.32 -6 5 C-9.50776784 6.60355101 -12.14354879 7.22036864 -16 7 C-16 7.66 -16 8.32 -16 9 C-34.62656221 11.72045843 -52.29797674 12.97110157 -71 10 C-71 9.67 -71 9.34 -71 9 C-57.14 9 -43.28 9 -29 9 C-29 8.34 -29 7.68 -29 7 C-24.15758367 5.66416101 -20.06562383 4.74671881 -15 5 C-15 4.34 -15 3.68 -15 3 C-12.87790224 2.30359327 -10.75221473 1.61811643 -8.625 0.9375 C-6.84996094 0.36322266 -6.84996094 0.36322266 -5.0390625 -0.22265625 C-2 -1 -2 -1 0 0 Z " fill="#F8DAB2" transform="translate(259,415)"/>
<path d="M0 0 C1.30710937 -0.00483398 1.30710937 -0.00483398 2.640625 -0.00976562 C9.10779542 0.04529542 9.10779542 0.04529542 11.375 2.3125 C12.365 2.9725 13.355 3.6325 14.375 4.3125 C20.88883344 10.40608613 25.34611227 16.58489801 25.8125 25.6875 C25.65471585 31.00575409 23.60188022 35.55055525 21.375 40.3125 C20.385 39.8175 20.385 39.8175 19.375 39.3125 C19.705 38.054375 20.035 36.79625 20.375 35.5 C22.07533137 27.66369023 22.76267503 20.14082384 18.55859375 13.02734375 C14.62741126 7.33167011 11.03077416 5.55627686 4.484375 3.890625 C2.375 3.3125 2.375 3.3125 1.375 2.3125 C-3.69954515 1.9492694 -8.64157457 2.29025889 -13.625 3.3125 C-9.76685505 -0.77196071 -5.21864227 -0.09736273 0 0 Z " fill="#FAF4ED" transform="translate(307.625,311.6875)"/>
<path d="M0 0 C1.06733414 3.20200242 1.13462367 3.95321867 0 7 C-1.48828125 9.03515625 -1.48828125 9.03515625 -3.3125 11.0625 C-3.90675781 11.73410156 -4.50101562 12.40570313 -5.11328125 13.09765625 C-6.96261312 14.96230349 -8.88041486 16.45729164 -11 18 C-12.74674399 19.74674399 -14.25472758 21.52624887 -15.8125 23.4375 C-18.28879181 26.36787955 -20.68058166 28.06367264 -24 30 C-24.6837045 31.32467746 -25.34964186 32.65863633 -26 34 C-27.62053812 35.38903267 -29.29705213 36.71332828 -31 38 C-34.39616091 40.74891051 -37.49555262 43.35142479 -40.1875 46.8125 C-42.2070289 49.24986247 -43.01396112 49.42504841 -46 50 C-41.49629942 44.58740138 -36.70551606 39.61488162 -31.6796875 34.6875 C-30.07653423 33.10185432 -28.47367854 31.51590773 -26.87109375 29.9296875 C-24.36833111 27.45790816 -21.86332609 24.98854081 -19.35302734 22.52441406 C-16.91341668 20.12725214 -14.48345394 17.7206419 -12.0546875 15.3125 C-11.30669891 14.58313232 -10.55871033 13.85376465 -9.78805542 13.10229492 C-5.66729694 9.00183983 -2.61259296 5.20302362 0 0 Z " fill="#F4F4F4" transform="translate(282,39)"/>
<path d="M0 0 C0.67578125 1.66796875 0.67578125 1.66796875 1 4 C-0.14453125 6.55078125 -0.14453125 6.55078125 -1.8125 9.3125 C-6.08383868 16.78734268 -7.35144196 23.51754357 -8 32 C-8.33 32 -8.66 32 -9 32 C-9 37.61 -9 43.22 -9 49 C-13.92568457 41.61147314 -12.83410684 30.76847826 -11.3515625 22.29296875 C-9.27738531 14.25331615 -5.99518738 5.99518738 0 0 Z " fill="#EFEFEF" transform="translate(102,223)"/>
<path d="M0 0 C6.90315648 3.3325583 12.63143917 8.21981359 16.07421875 15.16796875 C17.21940261 18.67116832 17.19374973 21.63438958 17.125 25.3125 C17.10695313 26.56675781 17.08890625 27.82101563 17.0703125 29.11328125 C17.04710937 30.06589844 17.02390625 31.01851562 17 32 C15.02 32.495 15.02 32.495 13 33 C13.04640625 32.16597656 13.0928125 31.33195312 13.140625 30.47265625 C13.35706054 23.72450538 13.08175053 18.70855394 9.875 12.70703125 C9 11 9 11 9 9 C8.34 9 7.68 9 7 9 C6.4225 8.401875 5.845 7.80375 5.25 7.1875 C2.71413784 4.72207845 0.2025306 3.45569573 -3 2 C-2.01 1.34 -1.02 0.68 0 0 Z " fill="#F0F0F0" transform="translate(270,5)"/>
<path d="M0 0 C0.33 0.99 0.66 1.98 1 3 C1.78503906 2.67386719 2.57007813 2.34773437 3.37890625 2.01171875 C7.98894199 0.72369366 12.17887683 0.74567528 16.9375 0.8125 C17.80568359 0.81314453 18.67386719 0.81378906 19.56835938 0.81445312 C24.47754178 0.84784892 29.16005388 1.17687991 34 2 C34 2.66 34 3.32 34 4 C28.39 3.67 22.78 3.34 17 3 C17.33 3.33 17.66 3.66 18 4 C18 4.33 18 4.66 18 5 C15.4803886 5.36599397 12.96006672 5.71800851 10.4375 6.0625 C9.73302734 6.16626953 9.02855469 6.27003906 8.30273438 6.37695312 C3.60571341 7.0046656 -0.33932302 6.87579081 -5 6 C-5.33 6.99 -5.66 7.98 -6 9 C-6.66 9 -7.32 9 -8 9 C-6.4169423 4.7257442 -3.49431596 2.73468206 0 0 Z " fill="#F3D09E" transform="translate(190,135)"/>
<path d="M0 0 C4.875 1.75 4.875 1.75 6 4 C6.99 4.66 7.98 5.32 9 6 C11.42739108 7.61826072 12.9835454 8.9835454 15 11 C16.2375 11.928125 16.2375 11.928125 17.5 12.875 C20 15 20 15 21.375 17.375 C24.04403666 21.68652076 28.08579236 24.46863389 32.01171875 27.609375 C32.64722656 28.13015625 33.28273438 28.6509375 33.9375 29.1875 C34.81728516 29.88939453 34.81728516 29.88939453 35.71484375 30.60546875 C37 32 37 32 37 35 C35.35341732 33.59354396 33.70775791 32.18599469 32.06640625 30.7734375 C30.70507944 29.60511544 29.33799776 28.44346069 27.96484375 27.2890625 C27.29582031 26.71929687 26.62679688 26.14953125 25.9375 25.5625 C25.32777344 25.04816406 24.71804688 24.53382812 24.08984375 24.00390625 C22.31574024 22.30275653 20.85211913 20.61198618 19.30859375 18.7109375 C15.74390974 14.487434 11.55395155 11.33166678 7.125 8.0625 C6.34125 7.47404297 5.5575 6.88558594 4.75 6.27929688 C2.83851679 4.84568446 0.9219516 3.41952873 -1 2 C-0.67 1.34 -0.34 0.68 0 0 Z " fill="#F9EEE1" transform="translate(264,100)"/>
<path d="M0 0 C3.88767262 5.83150893 3.68469479 11.09080707 3 18 C0.93240082 24.63057669 -2.34674601 29.05586931 -8 33 C-8 29.39351969 -7.10012314 28.34770529 -5.0625 25.4375 C-1.654778 20.60048445 -1.654778 20.60048445 -0.9375 14.90234375 C-0.94523437 14.10119141 -0.95296875 13.30003906 -0.9609375 12.47460938 C-0.97382813 11.63736328 -0.98671875 10.80011719 -1 9.9375 C-1.04574281 6.95278175 -1.04706907 3.98594428 -1 1 C-0.67 0.67 -0.34 0.34 0 0 Z " fill="#F3F3F3" transform="translate(394,245)"/>
<path d="M0 0 C1.47726563 0.43119141 1.47726563 0.43119141 2.984375 0.87109375 C3.73203125 1.09925781 4.4796875 1.32742188 5.25 1.5625 C5.25 2.2225 5.25 2.8825 5.25 3.5625 C9.67682491 4.6015378 14.03934632 4.87842951 18.5625 5.125 C19.30306641 5.16818359 20.04363281 5.21136719 20.80664062 5.25585938 C22.62091464 5.36120432 24.4354355 5.46228316 26.25 5.5625 C26.25 5.8925 26.25 6.2225 26.25 6.5625 C2.7646434 7.06337253 2.7646434 7.06337253 -7.75 2.5625 C-8.08 3.2225 -8.41 3.8825 -8.75 4.5625 C-9.08 2.9125 -9.41 1.2625 -9.75 -0.4375 C-6.09142468 -1.75284494 -3.66973519 -1.09218309 0 0 Z " fill="#F7D8AF" transform="translate(191.75,369.4375)"/>
<path d="M0 0 C0.99 0.33 1.98 0.66 3 1 C3 1.99 3 2.98 3 4 C2.01 4.33 1.02 4.66 0 5 C-0.99 5.66 -1.98 6.32 -3 7 C-6.14453125 7.046875 -6.14453125 7.046875 -9.8125 6.75 C-11.01519531 6.66234375 -12.21789062 6.5746875 -13.45703125 6.484375 C-16.86122278 6.01897285 -19.78929163 5.19971339 -23 4 C-20.00621303 3.1231013 -17.42451388 2.91981929 -14.3125 3 C-9.4559791 3.05772982 -4.81477525 2.62126132 0 2 C0 1.34 0 0.68 0 0 Z " fill="#F7D6A8" transform="translate(317,195)"/>
<path d="M0 0 C3.22172474 1.40603719 5.25182473 3.0649602 7.64453125 5.625 C8.32193359 6.33140625 8.99933594 7.0378125 9.69726562 7.765625 C11.10189543 9.24937061 12.50040629 10.73893408 13.89257812 12.234375 C18.08836808 16.58497651 20.98049978 18.99281565 27 20 C27 20.99 27 21.98 27 23 C26.01 23 25.02 23 24 23 C23.67 23.66 23.34 24.32 23 25 C22.59257568 24.52038818 22.18515137 24.04077637 21.76538086 23.54663086 C17.25540439 18.30684783 12.49425577 13.40401321 7.5625 8.5625 C6.12406358 7.14941047 4.68773558 5.73417027 3.25390625 4.31640625 C2.62814697 3.70224854 2.0023877 3.08809082 1.35766602 2.45532227 C0 1 0 1 0 0 Z " fill="#ECE5DC" transform="translate(158,346)"/>
<path d="M0 0 C0.66 0.33 1.32 0.66 2 1 C2.66 1.268125 3.32 1.53625 4 1.8125 C6.38502734 3.22860998 6.98590222 4.46475554 8 7 C8.66 7 9.32 7 10 7 C12.02332616 8.86768569 12.93298787 10.28338048 13.19140625 13.046875 C13.18788604 15.0322723 13.09914617 17.01707668 13 19 C11 16 11 16 9.625 13.0625 C6.52082818 7.21233003 2.97452352 5.29789366 -3 3 C-3 2.34 -3 1.68 -3 1 C-2.01 0.67 -1.02 0.34 0 0 Z " fill="#E9E9E9" transform="translate(381,232)"/>
<path d="M0 0 C0.43570312 0.37511719 0.87140625 0.75023437 1.3203125 1.13671875 C4.29970656 3.69693399 7.28548144 6.24616983 10.3125 8.75 C13.77001892 11.644667 16.56704633 14.81468658 19.46484375 18.24609375 C20.91574132 19.903735 22.42409154 21.46172518 24 23 C23.67 23.66 23.34 24.32 23 25 C21.32737283 23.38113585 19.66204463 21.7547271 18 20.125 C17.071875 19.22007812 16.14375 18.31515625 15.1875 17.3828125 C13 15 13 15 13 13 C12.43796875 12.7628125 11.8759375 12.525625 11.296875 12.28125 C8.48105958 10.71052303 6.52044584 8.78528536 4.25 6.5 C3.45078125 5.7059375 2.6515625 4.911875 1.828125 4.09375 C0 2 0 2 0 0 Z " fill="#F5E2CB" transform="translate(301,135)"/>
<path d="M0 0 C1.30710937 -0.00483398 1.30710937 -0.00483398 2.640625 -0.00976562 C9.10779542 0.04529542 9.10779542 0.04529542 11.375 2.3125 C11.375 3.3025 11.375 4.2925 11.375 5.3125 C9.89488629 5.00451674 8.41592675 4.690982 6.9375 4.375 C6.11378906 4.20097656 5.29007812 4.02695312 4.44140625 3.84765625 C2.375 3.3125 2.375 3.3125 1.375 2.3125 C-3.69954515 1.9492694 -8.64157457 2.29025889 -13.625 3.3125 C-9.76685505 -0.77196071 -5.21864227 -0.09736273 0 0 Z " fill="#F6D3A5" transform="translate(307.625,311.6875)"/>
<path d="M0 0 C1.85562879 2.78344319 3.54048976 5.58936907 5.1875 8.5 C5.73792969 9.4590625 6.28835937 10.418125 6.85546875 11.40625 C8 14 8 14 7 17 C-2 5.52427184 -2 5.52427184 -2 1 C-1.34 0.67 -0.68 0.34 0 0 Z " fill="#F2F2F2" transform="translate(96,274)"/>
<path d="M0 0 C-1 2 -1 2 -3.07421875 2.7109375 C-3.93660156 2.93007812 -4.79898438 3.14921875 -5.6875 3.375 C-10.19098621 4.63778011 -13.2780666 6.20854995 -17 9 C-17.99 9.495 -17.99 9.495 -19 10 C-15.71019579 2.03521086 -8.08026337 -0.88148328 0 0 Z " fill="#D6D4D4" transform="translate(195,232)"/>
<path d="M0 0 C0.66 0.33 1.32 0.66 2 1 C-4.6 7.6 -11.2 14.2 -18 21 C-18 18 -18 18 -16.34765625 16.00708008 C-15.21650391 14.89949341 -15.21650391 14.89949341 -14.0625 13.76953125 C-13.25039062 12.96708984 -12.43828125 12.16464844 -11.6015625 11.33789062 C-10.74304688 10.50451172 -9.88453125 9.67113281 -9 8.8125 C-7.71222656 7.5450293 -7.71222656 7.5450293 -6.3984375 6.25195312 C-4.2721635 4.16111702 -2.13921536 2.07758017 0 0 Z " fill="#FFFEFD" transform="translate(267,336)"/>
<path d="M0 0 C3.96 0.33 7.92 0.66 12 1 C12 1.33 12 1.66 12 2 C10.35 2 8.7 2 7 2 C8.65 3.98 10.3 5.96 12 8 C8.66193504 8 7.64321392 7.41891055 4.875 5.6875 C4.17117187 5.25824219 3.46734375 4.82898438 2.7421875 4.38671875 C1 3 1 3 0 0 Z " fill="#F2CA93" transform="translate(151,406)"/>
<path d="M0 0 C0.58984375 1.87109375 0.58984375 1.87109375 1 4 C0.525625 4.680625 0.05125 5.36125 -0.4375 6.0625 C-3.57364155 11.95844611 -2.37616907 19.63521807 -1 26 C-5.09180961 21.61514302 -4.47251259 17.22306218 -4.37109375 11.5078125 C-3.87415779 6.81045994 -2.52731186 3.94892478 0 0 Z " fill="#DDDCDC" transform="translate(175,242)"/>
<path d="M0 0 C0.33 0 0.66 0 1 0 C1 11.88 1 23.76 1 36 C0.67 36 0.34 36 0 36 C-0.83659804 32.35743386 -1.12852756 28.98823165 -1.1328125 25.25390625 C-1.13410156 24.16916016 -1.13539062 23.08441406 -1.13671875 21.96679688 C-1.13285156 20.84337891 -1.12898438 19.71996094 -1.125 18.5625 C-1.12886719 17.44294922 -1.13273437 16.32339844 -1.13671875 15.16992188 C-1.13542969 14.08388672 -1.13414063 12.99785156 -1.1328125 11.87890625 C-1.13168457 10.8947876 -1.13055664 9.91066895 -1.12939453 8.89672852 C-0.99389421 5.86331103 -0.55704884 2.98245167 0 0 Z " fill="#FDFDFD" transform="translate(39,238)"/>
<path d="M0 0 C2.89907942 4.34861913 3.11376629 6.39583887 3.0625 11.625 C3.05347656 12.81351562 3.04445313 14.00203125 3.03515625 15.2265625 C3.02355469 16.14179688 3.01195312 17.05703125 3 18 C2.34 17.67 1.68 17.34 1 17 C0.49610519 14.31256099 0.11290811 11.71065924 -0.1875 9 C-0.28224609 8.24976563 -0.37699219 7.49953125 -0.47460938 6.7265625 C-0.69967546 4.82295012 -0.85538687 2.91140835 -1 1 C-0.67 0.67 -0.34 0.34 0 0 Z " fill="#FAFAFA" transform="translate(394,245)"/>
<path d="M0 0 C0.92550505 2.49886364 1.04422814 3.82751024 0.375 6.4375 C-1.32172203 9.59957288 -3.27650073 11.6750616 -6 14 C-6.99 14 -7.98 14 -9 14 C-8.60167969 13.57589844 -8.20335937 13.15179688 -7.79296875 12.71484375 C-4.14137539 8.67232555 -1.87842746 5.11349698 0 0 Z " fill="#FAF1E5" transform="translate(328,183)"/>
<path d="M0 0 C1.65 0 3.3 0 5 0 C2.48093766 2.69899537 0.34954566 4.47747925 -3 6 C-4.299375 6.8353125 -4.299375 6.8353125 -5.625 7.6875 C-6.40875 8.120625 -7.1925 8.55375 -8 9 C-8.66 8.67 -9.32 8.34 -10 8 C-8.8803014 6.99406757 -7.7540588 5.9954151 -6.625 5 C-5.68527344 4.1646875 -5.68527344 4.1646875 -4.7265625 3.3125 C-3 2 -3 2 -1 2 C-0.67 1.34 -0.34 0.68 0 0 Z " fill="#F5E7D3" transform="translate(185,141)"/>
<path d="M0 0 C0.33 0 0.66 0 1 0 C1.66 5.28 2.32 10.56 3 16 C2.01 16.33 1.02 16.66 0 17 C-0.19561869 14.9174133 -0.38119313 12.83388144 -0.5625 10.75 C-0.66691406 9.58984375 -0.77132812 8.4296875 -0.87890625 7.234375 C-0.98198087 4.48128523 -0.86213473 2.580018 0 0 Z " fill="#F8F8F8" transform="translate(93,258)"/>
<path d="M0 0 C2.5625 2.0625 2.5625 2.0625 5 5 C4.8125 8.8125 4.8125 8.8125 4 12 C2.03782293 9.0567344 0.41759302 6.24021262 -1 3 C-0.67 2.01 -0.34 1.02 0 0 Z " fill="#E9E9E9" transform="translate(280,13)"/>
<path d="M0 0 C1.17539996 0.92652701 2.34010577 1.86663387 3.5 2.8125 C4.1496875 3.33457031 4.799375 3.85664063 5.46875 4.39453125 C7 6 7 6 7 9 C5.82460004 8.07347299 4.65989423 7.13336613 3.5 6.1875 C2.52546875 5.40439453 2.52546875 5.40439453 1.53125 4.60546875 C0 3 0 3 0 0 Z " fill="#FCFAF8" transform="translate(294,126)"/>
<path d="M0 0 C-3.14591933 2.80045623 -5.067064 3.35261589 -9.25 3.1875 C-10.14203125 3.16042969 -11.0340625 3.13335937 -11.953125 3.10546875 C-12.96632812 3.05326172 -12.96632812 3.05326172 -14 3 C-14 2.67 -14 2.34 -14 2 C-12.04396149 1.47061343 -10.08507711 0.95173199 -8.125 0.4375 C-7.03445312 0.14746094 -5.94390625 -0.14257812 -4.8203125 -0.44140625 C-2 -1 -2 -1 0 0 Z " fill="#F7D6A9" transform="translate(232,372)"/>
<path d="M0 0 C0.66 0.99 1.32 1.98 2 3 C-0.85306797 5.32472205 -3.54074837 6.7508258 -7 8 C-6.02133662 6.85373678 -5.04205413 5.70800212 -4.0625 4.5625 C-3.51722656 3.92441406 -2.97195313 3.28632813 -2.41015625 2.62890625 C-1.63204305 1.73008851 -0.84063472 0.84063472 0 0 Z " fill="#F8ECDE" transform="translate(311,366)"/>
<path d="M0 0 C2.76276177 0.52268466 5.3260876 1.10869587 8 2 C8 2.66 8 3.32 8 4 C8.99 4.33 9.98 4.66 11 5 C6.62886504 4.49172849 3.61004338 3.54826592 0 1 C0 0.67 0 0.34 0 0 Z " fill="#D7D6D5" transform="translate(180,276)"/>
<path d="M0 0 C0.66 0.33 1.32 0.66 2 1 C2 3.97 2 6.94 2 10 C1.34 9.67 0.68 9.34 0 9 C-0.44921875 7.1875 -0.44921875 7.1875 -0.6875 5 C-0.77386719 4.278125 -0.86023438 3.55625 -0.94921875 2.8125 C-0.96597656 2.214375 -0.98273438 1.61625 -1 1 C-0.67 0.67 -0.34 0.34 0 0 Z " fill="#FDFDFC" transform="translate(331,170)"/>
<path d="M0 0 C0.66 0.33 1.32 0.66 2 1 C1.67 1.99 1.34 2.98 1 4 C-1.5625 5.1875 -1.5625 5.1875 -4 6 C-4 5.01 -4 4.02 -4 3 C-2 1.3125 -2 1.3125 0 0 Z " fill="#FBF4EB" transform="translate(272,404)"/>
<path d="M0 0 C0 0.33 0 0.66 0 1 C-4.95 1 -9.9 1 -15 1 C-15 0.67 -15 0.34 -15 0 C-9.96266834 -1.5111995 -5.11828973 -0.64599773 0 0 Z " fill="#FDFDFD" transform="translate(267,3)"/>
<path d="M0 0 C0.66 0.33 1.32 0.66 2 1 C-0.64 3.64 -3.28 6.28 -6 9 C-6 6 -6 6 -4.6875 4.39453125 C-4.130625 3.87246094 -3.57375 3.35039062 -3 2.8125 C-2.443125 2.28269531 -1.88625 1.75289063 -1.3125 1.20703125 C-0.6628125 0.60955078 -0.6628125 0.60955078 0 0 Z " fill="#FEFEFD" transform="translate(286,317)"/>
<path d="M0 0 C1.04940314 3.14820941 1.066855 3.99340864 0 7 C-0.66 7.66 -1.32 8.32 -2 9 C-2.6875 7.3125 -2.6875 7.3125 -3 5 C-1.5625 2.25 -1.5625 2.25 0 0 Z " fill="#EEEEEE" transform="translate(282,39)"/>
<path d="M0 0 C5.28 0 10.56 0 16 0 C16 0.33 16 0.66 16 1 C10.72 1 5.44 1 0 1 C0 0.67 0 0.34 0 0 Z " fill="#FFFEFD" transform="translate(202,373)"/>
<path d="M0 0 C1.17539996 0.92652701 2.34010577 1.86663387 3.5 2.8125 C4.1496875 3.33457031 4.799375 3.85664063 5.46875 4.39453125 C7 6 7 6 7 9 C5.82737096 7.88121617 4.66204862 6.75476949 3.5 5.625 C2.8503125 4.99851562 2.200625 4.37203125 1.53125 3.7265625 C0 2 0 2 0 0 Z " fill="#FDFDFD" transform="translate(65,325)"/>
<path d="M0 0 C4.62 0 9.24 0 14 0 C14 0.33 14 0.66 14 1 C9.38 1 4.76 1 0 1 C0 0.67 0 0.34 0 0 Z " fill="#FFFFFE" transform="translate(203,428)"/>
<path d="M0 0 C4.62 0 9.24 0 14 0 C14 0.33 14 0.66 14 1 C9.38 1 4.76 1 0 1 C0 0.67 0 0.34 0 0 Z " fill="#FEFEFD" transform="translate(298,310)"/>
<path d="M0 0 C0.33 0 0.66 0 1 0 C1 4.62 1 9.24 1 14 C0.67 14 0.34 14 0 14 C0 9.38 0 4.76 0 0 Z " fill="#FEFEFE" transform="translate(169,250)"/>
<path d="M0 0 C3.96 0 7.92 0 12 0 C12 0.33 12 0.66 12 1 C8.04 1 4.08 1 0 1 C0 0.67 0 0.34 0 0 Z " fill="#FEFEFD" transform="translate(299,202)"/>
<path d="M0 0 C2.97 0 5.94 0 9 0 C9 0.33 9 0.66 9 1 C6.03 1 3.06 1 0 1 C0 0.67 0 0.34 0 0 Z " fill="#FEFEFD" transform="translate(218,427)"/>
<path d="M0 0 C2.97 0 5.94 0 9 0 C9 0.33 9 0.66 9 1 C6.03 1 3.06 1 0 1 C0 0.67 0 0.34 0 0 Z " fill="#FFFEFD" transform="translate(193,427)"/>
<path d="M0 0 C2.64 0 5.28 0 8 0 C8 0.33 8 0.66 8 1 C5.36 1 2.72 1 0 1 C0 0.67 0 0.34 0 0 Z " fill="#FFFEFD" transform="translate(212,139)"/>
<path d="M0 0 C0.99 0.33 1.98 0.66 3 1 C1.02 1.33 -0.96 1.66 -3 2 C-2.01 1.34 -1.02 0.68 0 0 Z " fill="#FEFEFD" transform="translate(226,370)"/>
<path d="M0 0 C0.33 0 0.66 0 1 0 C1 1.98 1 3.96 1 6 C0.67 6 0.34 6 0 6 C0 4.02 0 2.04 0 0 Z " fill="#FDFDFD" transform="translate(40,274)"/>
<path d="M0 0 C1.65 0 3.3 0 5 0 C5 0.33 5 0.66 5 1 C3.35 1 1.7 1 0 1 C0 0.67 0 0.34 0 0 Z " fill="#FEFEFD" transform="translate(188,426)"/>
<path d="M0 0 C0.99 0.33 1.98 0.66 3 1 C2.67 1.66 2.34 2.32 2 3 C1.34 2.01 0.68 1.02 0 0 Z " fill="#FEFEFE" transform="translate(114,375)"/>
<path d="M0 0 C1.65 0 3.3 0 5 0 C5 0.33 5 0.66 5 1 C3.35 1 1.7 1 0 1 C0 0.67 0 0.34 0 0 Z " fill="#FFFEFD" transform="translate(218,372)"/>
<path d="M0 0 C1.65 0 3.3 0 5 0 C5 0.33 5 0.66 5 1 C3.35 1 1.7 1 0 1 C0 0.67 0 0.34 0 0 Z " fill="#FFFEFD" transform="translate(197,372)"/>
<path d="M0 0 C0.33 0 0.66 0 1 0 C1 1.65 1 3.3 1 5 C0.67 5 0.34 5 0 5 C0 3.35 0 1.7 0 0 Z " fill="#FDFDFD" transform="translate(40,233)"/>
<path d="M0 0 C4 1 4 1 4 1 Z " fill="#FEFEFD" transform="translate(227,426)"/>
<path d="M0 0 C4 1 4 1 4 1 Z " fill="#FFFEFD" transform="translate(232,425)"/>
<path d="M0 0 C4 1 4 1 4 1 Z " fill="#FFFEFD" transform="translate(184,425)"/>
<path d="M0 0 C4 1 4 1 4 1 Z " fill="#FEFEFE" transform="translate(180,424)"/>
<path d="M0 0 C0.66 0.33 1.32 0.66 2 1 C1.01 1 0.02 1 -1 1 C-0.67 0.67 -0.34 0.34 0 0 Z " fill="#FEFEFD" transform="translate(238,364)"/>
<path d="M0 0 C0.66 0.33 1.32 0.66 2 1 C1.01 1 0.02 1 -1 1 C-0.67 0.67 -0.34 0.34 0 0 Z " fill="#FFFEFD" transform="translate(243,360)"/>
<path d="M0 0 C1 4 1 4 1 4 Z " fill="#FDFDFD" transform="translate(42,283)"/>
<path d="M0 0 C4 1 4 1 4 1 Z " fill="#FEFEFE" transform="translate(187,230)"/>
<path d="M0 0 C1 4 1 4 1 4 Z " fill="#FDFDFD" transform="translate(41,229)"/>
<path d="M0 0 C0 3 0 3 0 3 Z " fill="#FDFDFD" transform="translate(64,187)"/>
<path d="M0 0 C4 1 4 1 4 1 Z " fill="#FFFFFE" transform="translate(208,138)"/>
<path d="M0 0 C3 1 3 1 3 1 Z " fill="#FFFEFD" transform="translate(177,423)"/>
<path d="M0 0 C3 1 3 1 3 1 Z " fill="#FEFEFD" transform="translate(174,422)"/>
<path d="M0 0 C3 1 3 1 3 1 Z " fill="#FEFEFE" transform="translate(169,420)"/>
<path d="M0 0 C0.66 0 1.32 0 2 0 C1.67 0.66 1.34 1.32 1 2 C0.67 1.34 0.34 0.68 0 0 Z " fill="#FEFEFE" transform="translate(117,378)"/>
<path d="M0 0 C3 1 3 1 3 1 Z " fill="#FFFEFD" transform="translate(231,368)"/>
<path d="M0 0 C0.66 0 1.32 0 2 0 C1.67 0.66 1.34 1.32 1 2 C0.67 1.34 0.34 0.68 0 0 Z " fill="#FEFEFE" transform="translate(73,334)"/>
<path d="M0 0 C0.99 0.495 0.99 0.495 2 1 C1.01 1.495 1.01 1.495 0 2 C0 1.34 0 0.68 0 0 Z " fill="#FEFEFD" transform="translate(273,330)"/>
<path d="M0 0 C0.99 0.495 0.99 0.495 2 1 C1.01 1.495 1.01 1.495 0 2 C0 1.34 0 0.68 0 0 Z " fill="#FEFEFD" transform="translate(275,328)"/>
<path d="M0 0 C3 1 3 1 3 1 Z " fill="#FFFEFD" transform="translate(295,311)"/>
<path d="" fill="#FDFDFD" transform="translate(0,0)"/>
<path d="" fill="#FDFDFD" transform="translate(0,0)"/>
<path d="" fill="#FDFDFD" transform="translate(0,0)"/>
<path d="" fill="#FDFDFD" transform="translate(0,0)"/>
<path d="" fill="#FEFEFE" transform="translate(0,0)"/>
<path d="" fill="#FFFFFF" transform="translate(0,0)"/>
<path d="" fill="#FDFDFD" transform="translate(0,0)"/>
<path d="" fill="#FDFDFD" transform="translate(0,0)"/>
<path d="" fill="#FDFDFD" transform="translate(0,0)"/>
<path d="" fill="#FDFDFD" transform="translate(0,0)"/>
<path d="M0 0 C3 1 3 1 3 1 Z " fill="#FFFEFD" transform="translate(296,201)"/>
<path d="M0 0 C3 1 3 1 3 1 Z " fill="#FEFEFD" transform="translate(227,142)"/>
<path d="M0 0 C3 1 3 1 3 1 Z " fill="#FEFEFE" transform="translate(224,141)"/>
<path d="M0 0 C3 1 3 1 3 1 Z " fill="#FFFEFD" transform="translate(221,140)"/>
<path d="M0 0 C3 1 3 1 3 1 Z " fill="#FFFEFD" transform="translate(244,90)"/>
<path d="M0 0 C3 1 3 1 3 1 Z " fill="#FEFEFE" transform="translate(241,89)"/>
<path d="M0 0 C3 1 3 1 3 1 Z " fill="#FDFDFD" transform="translate(249,4)"/>
<path d="M0 0 C2 1 2 1 2 1 Z " fill="#FEFEFD" transform="translate(243,422)"/>
<path d="M0 0 C2 1 2 1 2 1 Z " fill="#FFFEFD" transform="translate(172,421)"/>
<path d="M0 0 C2 1 2 1 2 1 Z " fill="#FFFEFD" transform="translate(167,419)"/>
<path d="M0 0 C2 1 2 1 2 1 Z " fill="#FFFEFD" transform="translate(253,418)"/>
<path d="M0 0 C2 1 2 1 2 1 Z " fill="#FFFEFD" transform="translate(165,418)"/>
<path d="M0 0 C2 1 2 1 2 1 Z " fill="#FFFEFD" transform="translate(163,417)"/>
<path d="M0 0 C2 1 2 1 2 1 Z " fill="#FFFEFD" transform="translate(161,416)"/>
<path d="M0 0 C2 1 2 1 2 1 Z " fill="#FFFEFD" transform="translate(158,414)"/>
<path d="M0 0 C2 1 2 1 2 1 Z " fill="#FFFFFE" transform="translate(156,413)"/>
<path d="M0 0 C2 1 2 1 2 1 Z " fill="#FFFEFD" transform="translate(154,412)"/>
<path d="M0 0 C2 1 2 1 2 1 Z " fill="#FEFEFD" transform="translate(151,410)"/>
<path d="M0 0 C2 1 2 1 2 1 Z " fill="#FEFDFD" transform="translate(146,406)"/>
<path d="M0 0 C2 1 2 1 2 1 Z " fill="#FEFEFE" transform="translate(142,403)"/>
<path d="M0 0 C2 1 2 1 2 1 Z " fill="#FFFEFD" transform="translate(235,366)"/>
<path d="" fill="#FEFEFE" transform="translate(0,0)"/>
<path d="" fill="#FEFEFE" transform="translate(0,0)"/>
<path d="M0 0 C2 1 2 1 2 1 Z " fill="#FFFFFE" transform="translate(290,314)"/>
<path d="" fill="#FDFDFD" transform="translate(0,0)"/>
<path d="M0 0 C2 1 2 1 2 1 Z " fill="#FEFEFD" transform="translate(293,312)"/>
<path d="M0 0 C2 1 2 1 2 1 Z " fill="#FFFFFD" transform="translate(313,311)"/>
<path d="" fill="#FDFDFD" transform="translate(0,0)"/>
<path d="" fill="#FDFDFD" transform="translate(0,0)"/>
<path d="" fill="#FDFDFD" transform="translate(0,0)"/>
<path d="" fill="#FDFDFD" transform="translate(0,0)"/>
<path d="" fill="#FEFEFE" transform="translate(0,0)"/>
<path d="" fill="#FDFDFD" transform="translate(0,0)"/>
<path d="" fill="#FDFDFD" transform="translate(0,0)"/>
<path d="M0 0 C2 1 2 1 2 1 Z " fill="#FEFEFE" transform="translate(377,282)"/>
<path d="M0 0 C2 1 2 1 2 1 Z " fill="#FEFEFE" transform="translate(187,282)"/>
<path d="M0 0 C2 1 2 1 2 1 Z " fill="#FEFEFE" transform="translate(184,281)"/>
<path d="M0 0 C2 1 2 1 2 1 Z " fill="#FEFEFE" transform="translate(181,279)"/>
<path d="" fill="#FEFEFE" transform="translate(0,0)"/>
<path d="" fill="#FEFEFE" transform="translate(0,0)"/>
<path d="" fill="#FEFEFE" transform="translate(0,0)"/>
<path d="" fill="#FFFFFF" transform="translate(0,0)"/>
<path d="" fill="#FFFFFF" transform="translate(0,0)"/>
<path d="M0 0 C2 1 2 1 2 1 Z " fill="#FFFFFF" transform="translate(180,234)"/>
<path d="M0 0 C2 1 2 1 2 1 Z " fill="#FFFFFF" transform="translate(183,232)"/>
<path d="M0 0 C2 1 2 1 2 1 Z " fill="#FEFEFE" transform="translate(379,231)"/>
<path d="M0 0 C2 1 2 1 2 1 Z " fill="#FEFEFE" transform="translate(185,231)"/>
<path d="" fill="#FDFDFD" transform="translate(0,0)"/>
<path d="" fill="#FDFDFD" transform="translate(0,0)"/>
<path d="" fill="#FEFEFE" transform="translate(0,0)"/>
<path d="" fill="#FEFEFE" transform="translate(0,0)"/>
<path d="" fill="#FEFEFE" transform="translate(0,0)"/>
<path d="" fill="#FDFDFD" transform="translate(0,0)"/>
<path d="" fill="#FDFDFD" transform="translate(0,0)"/>
<path d="" fill="#FDFDFD" transform="translate(0,0)"/>
<path d="M0 0 C2 1 2 1 2 1 Z " fill="#FFFEFD" transform="translate(294,200)"/>
<path d="M0 0 C2 1 2 1 2 1 Z " fill="#FFFEFD" transform="translate(290,198)"/>
<path d="" fill="#FEFEFE" transform="translate(0,0)"/>
<path d="" fill="#FDFDFD" transform="translate(0,0)"/>
<path d="M0 0 C2 1 2 1 2 1 Z " fill="#FFFEFD" transform="translate(240,149)"/>
<path d="M0 0 C2 1 2 1 2 1 Z " fill="#FFFEFD" transform="translate(236,146)"/>
<path d="M0 0 C2 1 2 1 2 1 Z " fill="#FFFEFD" transform="translate(234,145)"/>
<path d="M0 0 C2 1 2 1 2 1 Z " fill="#FFFEFE" transform="translate(232,144)"/>
<path d="M0 0 C2 1 2 1 2 1 Z " fill="#FFFEFE" transform="translate(230,143)"/>
<path d="M0 0 C2 1 2 1 2 1 Z " fill="#FFFEFD" transform="translate(188,143)"/>
<path d="M0 0 C2 1 2 1 2 1 Z " fill="#FFFEFE" transform="translate(190,142)"/>
<path d="M0 0 C2 1 2 1 2 1 Z " fill="#FFFEFD" transform="translate(247,91)"/>
<path d="M0 0 C2 1 2 1 2 1 Z " fill="#FEFEFE" transform="translate(244,7)"/>
<path d="M0 0 C2 1 2 1 2 1 Z " fill="#FDFDFD" transform="translate(247,5)"/>
<path d="" fill="#FFFEFD" transform="translate(0,0)"/>
<path d="" fill="#FFFFFE" transform="translate(0,0)"/>
<path d="" fill="#FFFEFE" transform="translate(0,0)"/>
<path d="" fill="#FFFFFE" transform="translate(0,0)"/>
<path d="" fill="#FFFFFE" transform="translate(0,0)"/>
<path d="" fill="#FFFFFE" transform="translate(0,0)"/>
<path d="" fill="#FEFEFD" transform="translate(0,0)"/>
<path d="" fill="#FEFEFD" transform="translate(0,0)"/>
<path d="" fill="#FFFEFD" transform="translate(0,0)"/>
<path d="" fill="#FEFDFD" transform="translate(0,0)"/>
<path d="" fill="#FDFDFD" transform="translate(0,0)"/>
<path d="" fill="#FEFEFE" transform="translate(0,0)"/>
<path d="" fill="#FEFEFE" transform="translate(0,0)"/>
<path d="" fill="#FFFFFE" transform="translate(0,0)"/>
<path d="" fill="#FEFEFE" transform="translate(0,0)"/>
<path d="" fill="#FFFFFF" transform="translate(0,0)"/>
<path d="" fill="#FDFDFD" transform="translate(0,0)"/>
<path d="" fill="#FFFFFE" transform="translate(0,0)"/>
<path d="" fill="#FEFEFE" transform="translate(0,0)"/>
<path d="" fill="#FFFFFE" transform="translate(0,0)"/>
<path d="" fill="#FDFDFD" transform="translate(0,0)"/>
<path d="" fill="#FEFEFE" transform="translate(0,0)"/>
<path d="" fill="#FEFEFE" transform="translate(0,0)"/>
<path d="" fill="#FEFEFE" transform="translate(0,0)"/>
<path d="" fill="#FEFEFE" transform="translate(0,0)"/>
<path d="" fill="#FEFEFE" transform="translate(0,0)"/>
<path d="" fill="#FEFEFE" transform="translate(0,0)"/>
<path d="" fill="#FEFEFE" transform="translate(0,0)"/>
<path d="" fill="#FEFEFE" transform="translate(0,0)"/>
<path d="" fill="#FEFEFE" transform="translate(0,0)"/>
<path d="" fill="#FEFEFE" transform="translate(0,0)"/>
<path d="" fill="#FEFEFE" transform="translate(0,0)"/>
<path d="" fill="#FEFEFE" transform="translate(0,0)"/>
<path d="" fill="#FEFEFE" transform="translate(0,0)"/>
<path d="" fill="#FEFEFE" transform="translate(0,0)"/>
<path d="" fill="#FEFEFE" transform="translate(0,0)"/>
<path d="" fill="#FEFEFE" transform="translate(0,0)"/>
<path d="" fill="#FEFEFE" transform="translate(0,0)"/>
<path d="" fill="#FEFEFE" transform="translate(0,0)"/>
<path d="" fill="#FFFFFE" transform="translate(0,0)"/>
<path d="" fill="#FEFEFE" transform="translate(0,0)"/>
<path d="" fill="#FFFFFE" transform="translate(0,0)"/>
<path d="" fill="#FEFEFE" transform="translate(0,0)"/>
<path d="" fill="#FEFEFE" transform="translate(0,0)"/>
<path d="" fill="#FEFEFE" transform="translate(0,0)"/>
<path d="" fill="#FFFEFD" transform="translate(0,0)"/>
<path d="" fill="#FEFEFE" transform="translate(0,0)"/>
<path d="" fill="#FEFEFE" transform="translate(0,0)"/>
<path d="" fill="#FFFFFE" transform="translate(0,0)"/>
<path d="" fill="#FFFEFD" transform="translate(0,0)"/>
<path d="" fill="#FFFFFE" transform="translate(0,0)"/>
<path d="" fill="#FDFDFD" transform="translate(0,0)"/>
<path d="" fill="#FDFDFD" transform="translate(0,0)"/>
<path d="" fill="#FEFEFE" transform="translate(0,0)"/>
<path d="" fill="#FFFEFD" transform="translate(0,0)"/>
<path d="" fill="#FEFDFD" transform="translate(0,0)"/>
<path d="" fill="#FFFEFE" transform="translate(0,0)"/>
<path d="" fill="#FEFDFD" transform="translate(0,0)"/>
<path d="" fill="#FFFFFF" transform="translate(0,0)"/>
<path d="" fill="#FEFDFD" transform="translate(0,0)"/>
<path d="" fill="#FEFEFD" transform="translate(0,0)"/>
<path d="" fill="#FEFEFD" transform="translate(0,0)"/>
<path d="" fill="#FFFFFD" transform="translate(0,0)"/>
<path d="" fill="#FEFEFD" transform="translate(0,0)"/>
<path d="" fill="#FFFEFD" transform="translate(0,0)"/>
<path d="" fill="#FEFDFD" transform="translate(0,0)"/>
<path d="" fill="#FFFEFD" transform="translate(0,0)"/>
<path d="" fill="#FEFDFD" transform="translate(0,0)"/>
<path d="" fill="#FEFDFD" transform="translate(0,0)"/>
<path d="" fill="#FEFDFD" transform="translate(0,0)"/>
<path d="" fill="#FDFDFD" transform="translate(0,0)"/>
<path d="" fill="#FDFDFD" transform="translate(0,0)"/>
<path d="" fill="#FDFDFD" transform="translate(0,0)"/>
<path d="" fill="#FDFDFD" transform="translate(0,0)"/>
<path d="" fill="#FDFDFD" transform="translate(0,0)"/>
<path d="" fill="#FDFDFD" transform="translate(0,0)"/>
<path d="" fill="#FDFDFD" transform="translate(0,0)"/>
<path d="" fill="#FEFEFE" transform="translate(0,0)"/>
<path d="" fill="#FEFEFE" transform="translate(0,0)"/>
<path d="" fill="#FEFEFE" transform="translate(0,0)"/>
<path d="" fill="#FEFEFE" transform="translate(0,0)"/>
<path d="" fill="#FEFEFE" transform="translate(0,0)"/>
<path d="" fill="#FEFEFE" transform="translate(0,0)"/>
<path d="" fill="#FEFEFE" transform="translate(0,0)"/>
<path d="" fill="#FDFDFD" transform="translate(0,0)"/>
<path d="" fill="#FEFEFE" transform="translate(0,0)"/>
<path d="" fill="#FEFEFE" transform="translate(0,0)"/>
<path d="" fill="#FEFEFE" transform="translate(0,0)"/>
<path d="" fill="#FEFEFE" transform="translate(0,0)"/>
<path d="" fill="#FFFFFD" transform="translate(0,0)"/>
<path d="" fill="#FFFEFD" transform="translate(0,0)"/>
<path d="" fill="#FFFEFD" transform="translate(0,0)"/>
<path d="" fill="#FFFEFD" transform="translate(0,0)"/>
<path d="" fill="#FFFEFD" transform="translate(0,0)"/>
<path d="" fill="#FFFEFD" transform="translate(0,0)"/>
<path d="" fill="#FCFCFC" transform="translate(0,0)"/>
<path d="" fill="#FCFCFC" transform="translate(0,0)"/>
<path d="" fill="#FDFDFD" transform="translate(0,0)"/>
<path d="" fill="#FDFDFD" transform="translate(0,0)"/>
<path d="" fill="#FFFFFE" transform="translate(0,0)"/>
<path d="" fill="#FFFFFE" transform="translate(0,0)"/>
<path d="" fill="#FDFDFD" transform="translate(0,0)"/>
<path d="" fill="#FFFFFE" transform="translate(0,0)"/>
<path d="" fill="#FDFDFD" transform="translate(0,0)"/>
<path d="" fill="#FFFFFE" transform="translate(0,0)"/>
<path d="" fill="#FEFEFD" transform="translate(0,0)"/>
<path d="" fill="#FFFFFE" transform="translate(0,0)"/>
<path d="" fill="#FFFEFE" transform="translate(0,0)"/>
<path d="" fill="#FDFDFD" transform="translate(0,0)"/>
<path d="" fill="#FFFEFE" transform="translate(0,0)"/>
<path d="" fill="#FDFDFD" transform="translate(0,0)"/>
<path d="" fill="#FEFEFE" transform="translate(0,0)"/>
<path d="" fill="#FEFEFE" transform="translate(0,0)"/>
<path d="" fill="#FFFFFF" transform="translate(0,0)"/>
<path d="" fill="#FEFEFE" transform="translate(0,0)"/>
<path d="" fill="#FEFEFE" transform="translate(0,0)"/>
<path d="" fill="#FEFEFE" transform="translate(0,0)"/>
<path d="" fill="#FEFEFE" transform="translate(0,0)"/>
<path d="" fill="#FFFEFF" transform="translate(0,0)"/>
<path d="" fill="#FEFEFE" transform="translate(0,0)"/>
<path d="" fill="#FEFEFE" transform="translate(0,0)"/>
<path d="" fill="#FEFEFE" transform="translate(0,0)"/>
<path d="" fill="#FFFFFF" transform="translate(0,0)"/>
<path d="" fill="#FEFEFE" transform="translate(0,0)"/>
<path d="" fill="#FFFFFF" transform="translate(0,0)"/>
<path d="" fill="#FFFFFF" transform="translate(0,0)"/>
<path d="" fill="#FEFEFE" transform="translate(0,0)"/>
<path d="" fill="#FFFFFF" transform="translate(0,0)"/>
<path d="" fill="#FEFEFE" transform="translate(0,0)"/>
<path d="" fill="#FFFFFE" transform="translate(0,0)"/>
<path d="" fill="#FEFEFE" transform="translate(0,0)"/>
<path d="" fill="#FEFEFE" transform="translate(0,0)"/>
<path d="" fill="#FEFEFE" transform="translate(0,0)"/>
<path d="" fill="#FEFEFE" transform="translate(0,0)"/>
<path d="" fill="#FFFEFD" transform="translate(0,0)"/>
<path d="" fill="#FFFFFE" transform="translate(0,0)"/>
<path d="" fill="#FDFDFD" transform="translate(0,0)"/>
<path d="" fill="#FFFFFE" transform="translate(0,0)"/>
<path d="" fill="#FFFEFE" transform="translate(0,0)"/>
<path d="" fill="#FDFDFD" transform="translate(0,0)"/>
<path d="" fill="#FEFEFD" transform="translate(0,0)"/>
<path d="" fill="#FDFDFD" transform="translate(0,0)"/>
<path d="" fill="#FFFEFC" transform="translate(0,0)"/>
<path d="" fill="#FFFEFD" transform="translate(0,0)"/>
<path d="" fill="#FFFEFC" transform="translate(0,0)"/>
<path d="" fill="#FDFDFD" transform="translate(0,0)"/>
<path d="" fill="#FFFFFD" transform="translate(0,0)"/>
<path d="" fill="#FDFDFD" transform="translate(0,0)"/>
<path d="" fill="#FFFEFC" transform="translate(0,0)"/>
<path d="" fill="#FDFDFD" transform="translate(0,0)"/>
<path d="" fill="#FFFFFD" transform="translate(0,0)"/>
<path d="" fill="#FFFFFD" transform="translate(0,0)"/>
<path d="" fill="#FFFEFC" transform="translate(0,0)"/>
<path d="" fill="#FFFFFD" transform="translate(0,0)"/>
<path d="" fill="#FEFEFE" transform="translate(0,0)"/>
<path d="" fill="#FFFEFC" transform="translate(0,0)"/>
<path d="" fill="#FEFEFE" transform="translate(0,0)"/>
<path d="" fill="#FFFFFD" transform="translate(0,0)"/>
<path d="" fill="#FDFDFD" transform="translate(0,0)"/>
<path d="" fill="#FFFEFC" transform="translate(0,0)"/>
<path d="" fill="#FEFDFD" transform="translate(0,0)"/>
<path d="" fill="#FFFFFD" transform="translate(0,0)"/>
<path d="" fill="#FEFDFD" transform="translate(0,0)"/>
<path d="" fill="#FFFEFC" transform="translate(0,0)"/>
<path d="" fill="#FDFDFD" transform="translate(0,0)"/>
<path d="" fill="#FFFEFD" transform="translate(0,0)"/>
<path d="" fill="#FEFEFD" transform="translate(0,0)"/>
<path d="" fill="#FFFEFD" transform="translate(0,0)"/>
<path d="" fill="#FDFDFD" transform="translate(0,0)"/>
<path d="" fill="#FFFEFD" transform="translate(0,0)"/>
<path d="" fill="#FEFEFE" transform="translate(0,0)"/>
<path d="" fill="#FFFEFD" transform="translate(0,0)"/>
<path d="" fill="#FDFDFD" transform="translate(0,0)"/>
<path d="" fill="#FFFEFE" transform="translate(0,0)"/>
<path d="" fill="#FEFEFD" transform="translate(0,0)"/>
<path d="" fill="#FEFEFD" transform="translate(0,0)"/>
<path d="" fill="#FDFDFC" transform="translate(0,0)"/>
<path d="" fill="#FFFEFD" transform="translate(0,0)"/>
<path d="" fill="#FEFDFD" transform="translate(0,0)"/>
<path d="" fill="#FEFEFC" transform="translate(0,0)"/>
<path d="" fill="#FDFCFC" transform="translate(0,0)"/>
<path d="" fill="#FFFFFD" transform="translate(0,0)"/>
<path d="" fill="#FDFDFD" transform="translate(0,0)"/>
<path d="" fill="#FEFDFD" transform="translate(0,0)"/>
<path d="" fill="#FEFEFD" transform="translate(0,0)"/>
<path d="" fill="#FDFDFD" transform="translate(0,0)"/>
<path d="" fill="#FCFCFC" transform="translate(0,0)"/>
<path d="" fill="#FFFFFD" transform="translate(0,0)"/>
<path d="" fill="#FDFDFD" transform="translate(0,0)"/>
<path d="" fill="#FDFDFD" transform="translate(0,0)"/>
<path d="" fill="#FEFEFC" transform="translate(0,0)"/>
<path d="" fill="#FDFDFD" transform="translate(0,0)"/>
<path d="" fill="#FDFDFD" transform="translate(0,0)"/>
<path d="" fill="#FEFEFC" transform="translate(0,0)"/>
<path d="" fill="#FDFDFD" transform="translate(0,0)"/>
<path d="" fill="#FDFDFD" transform="translate(0,0)"/>
<path d="" fill="#FFFFFD" transform="translate(0,0)"/>
<path d="" fill="#FDFDFD" transform="translate(0,0)"/>
<path d="" fill="#FDFDFD" transform="translate(0,0)"/>
<path d="" fill="#FEFEFC" transform="translate(0,0)"/>
<path d="" fill="#FDFDFD" transform="translate(0,0)"/>
<path d="" fill="#FDFDFD" transform="translate(0,0)"/>
<path d="" fill="#FEFEFC" transform="translate(0,0)"/>
<path d="" fill="#FDFDFD" transform="translate(0,0)"/>
<path d="" fill="#FDFDFD" transform="translate(0,0)"/>
<path d="" fill="#FFFEFC" transform="translate(0,0)"/>
<path d="" fill="#FDFDFD" transform="translate(0,0)"/>
<path d="" fill="#FDFDFD" transform="translate(0,0)"/>
<path d="" fill="#FFFEFD" transform="translate(0,0)"/>
<path d="" fill="#FDFDFD" transform="translate(0,0)"/>
<path d="" fill="#FFFEFC" transform="translate(0,0)"/>
<path d="" fill="#FDFDFD" transform="translate(0,0)"/>
<path d="" fill="#FFFFFD" transform="translate(0,0)"/>
<path d="" fill="#FDFDFD" transform="translate(0,0)"/>
<path d="" fill="#FFFEFC" transform="translate(0,0)"/>
<path d="" fill="#FCFCFC" transform="translate(0,0)"/>
<path d="" fill="#FFFFFD" transform="translate(0,0)"/>
<path d="" fill="#FDFDFD" transform="translate(0,0)"/>
<path d="" fill="#FDFDFD" transform="translate(0,0)"/>
<path d="" fill="#FFFEFC" transform="translate(0,0)"/>
<path d="" fill="#FDFDFD" transform="translate(0,0)"/>
<path d="" fill="#FDFDFD" transform="translate(0,0)"/>
<path d="" fill="#FFFFFE" transform="translate(0,0)"/>
<path d="" fill="#FFFEFD" transform="translate(0,0)"/>
<path d="" fill="#FDFDFD" transform="translate(0,0)"/>
<path d="" fill="#FDFDFD" transform="translate(0,0)"/>
<path d="" fill="#FFFFFF" transform="translate(0,0)"/>
<path d="" fill="#FFFEFC" transform="translate(0,0)"/>
<path d="" fill="#FDFDFD" transform="translate(0,0)"/>
<path d="" fill="#FDFDFD" transform="translate(0,0)"/>
<path d="" fill="#FFFFFE" transform="translate(0,0)"/>
<path d="" fill="#FFFEFD" transform="translate(0,0)"/>
<path d="" fill="#FDFDFD" transform="translate(0,0)"/>
<path d="" fill="#FDFDFD" transform="translate(0,0)"/>
<path d="" fill="#FEFEFD" transform="translate(0,0)"/>
<path d="" fill="#FEFEFD" transform="translate(0,0)"/>
<path d="" fill="#FDFDFD" transform="translate(0,0)"/>
<path d="" fill="#FCFCFC" transform="translate(0,0)"/>
<path d="" fill="#FFFFFE" transform="translate(0,0)"/>
<path d="" fill="#FFFFFD" transform="translate(0,0)"/>
<path d="" fill="#FDFDFD" transform="translate(0,0)"/>
<path d="" fill="#FDFDFD" transform="translate(0,0)"/>
<path d="" fill="#FEFEFD" transform="translate(0,0)"/>
<path d="" fill="#FFFEFD" transform="translate(0,0)"/>
<path d="" fill="#FDFDFD" transform="translate(0,0)"/>
<path d="" fill="#FCFCFC" transform="translate(0,0)"/>
<path d="" fill="#FFFFFE" transform="translate(0,0)"/>
<path d="" fill="#FFFEFD" transform="translate(0,0)"/>
<path d="" fill="#FCFCFC" transform="translate(0,0)"/>
<path d="" fill="#FFFFFE" transform="translate(0,0)"/>
<path d="" fill="#FFFEFC" transform="translate(0,0)"/>
<path d="" fill="#FDFCFC" transform="translate(0,0)"/>
<path d="" fill="#FFFFFE" transform="translate(0,0)"/>
<path d="" fill="#FCFCFC" transform="translate(0,0)"/>
<path d="" fill="#FEFEFD" transform="translate(0,0)"/>
<path d="" fill="#FFFEFE" transform="translate(0,0)"/>
<path d="" fill="#FCFCFC" transform="translate(0,0)"/>
<path d="" fill="#FFFFFD" transform="translate(0,0)"/>
<path d="" fill="#FFFEFE" transform="translate(0,0)"/>
<path d="" fill="#FDFCFC" transform="translate(0,0)"/>
<path d="" fill="#FCFCFC" transform="translate(0,0)"/>
<path d="" fill="#FFFEFE" transform="translate(0,0)"/>
<path d="" fill="#FCFCFC" transform="translate(0,0)"/>
<path d="" fill="#FFFEFE" transform="translate(0,0)"/>
<path d="" fill="#FFFEFE" transform="translate(0,0)"/>
<path d="" fill="#FCFCFC" transform="translate(0,0)"/>
<path d="" fill="#FFFFFE" transform="translate(0,0)"/>
<path d="" fill="#FCFCFC" transform="translate(0,0)"/>
<path d="" fill="#FFFEFE" transform="translate(0,0)"/>
<path d="" fill="#FCFCFC" transform="translate(0,0)"/>
<path d="" fill="#FFFFFE" transform="translate(0,0)"/>
<path d="" fill="#FCFCFC" transform="translate(0,0)"/>
<path d="" fill="#FFFEFE" transform="translate(0,0)"/>
<path d="" fill="#FCFCFC" transform="translate(0,0)"/>
<path d="" fill="#FFFFFE" transform="translate(0,0)"/>
<path d="" fill="#FCFCFC" transform="translate(0,0)"/>
<path d="" fill="#FFFEFE" transform="translate(0,0)"/>
<path d="" fill="#FDFDFD" transform="translate(0,0)"/>
<path d="" fill="#FFFFFE" transform="translate(0,0)"/>
<path d="" fill="#FCFCFC" transform="translate(0,0)"/>
<path d="" fill="#FFFEFE" transform="translate(0,0)"/>
<path d="" fill="#FDFDFD" transform="translate(0,0)"/>
<path d="" fill="#FFFFFE" transform="translate(0,0)"/>
<path d="" fill="#FCFCFC" transform="translate(0,0)"/>
<path d="" fill="#FFFFFE" transform="translate(0,0)"/>
<path d="" fill="#FDFDFD" transform="translate(0,0)"/>
<path d="" fill="#FCFCFC" transform="translate(0,0)"/>
<path d="" fill="#FDFDFD" transform="translate(0,0)"/>
<path d="" fill="#FDFDFD" transform="translate(0,0)"/>
<path d="" fill="#FDFDFD" transform="translate(0,0)"/>
<path d="" fill="#FDFDFD" transform="translate(0,0)"/>
<path d="" fill="#FDFDFD" transform="translate(0,0)"/>
<path d="" fill="#FEFEFE" transform="translate(0,0)"/>
<path d="" fill="#FDFDFD" transform="translate(0,0)"/>
<path d="" fill="#FFFEFE" transform="translate(0,0)"/>
<path d="" fill="#FCFCFC" transform="translate(0,0)"/>
<path d="" fill="#FFFEFE" transform="translate(0,0)"/>
<path d="" fill="#FCFCFC" transform="translate(0,0)"/>
<path d="" fill="#FFFEFD" transform="translate(0,0)"/>
<path d="" fill="#FDFDFD" transform="translate(0,0)"/>
<path d="" fill="#FFFEFE" transform="translate(0,0)"/>
<path d="" fill="#FCFCFC" transform="translate(0,0)"/>
<path d="" fill="#FFFEFE" transform="translate(0,0)"/>
<path d="" fill="#FDFDFD" transform="translate(0,0)"/>
<path d="" fill="#FFFEFE" transform="translate(0,0)"/>
<path d="" fill="#FCFCFC" transform="translate(0,0)"/>
<path d="" fill="#FEFEFD" transform="translate(0,0)"/>
<path d="" fill="#FDFDFD" transform="translate(0,0)"/>
<path d="" fill="#FFFEFE" transform="translate(0,0)"/>
<path d="" fill="#FCFCFC" transform="translate(0,0)"/>
<path d="" fill="#FFFEFE" transform="translate(0,0)"/>
<path d="" fill="#FCFCFC" transform="translate(0,0)"/>
<path d="" fill="#FCFCFC" transform="translate(0,0)"/>
<path d="" fill="#FCFCFC" transform="translate(0,0)"/>
<path d="" fill="#FCFCFC" transform="translate(0,0)"/>
<path d="" fill="#FCFCFC" transform="translate(0,0)"/>
<path d="" fill="#FDFDFD" transform="translate(0,0)"/>
<path d="" fill="#FFFEFE" transform="translate(0,0)"/>
<path d="" fill="#FDFDFD" transform="translate(0,0)"/>
<path d="" fill="#FDFDFD" transform="translate(0,0)"/>
<path d="" fill="#FDFDFD" transform="translate(0,0)"/>
<path d="" fill="#FDFDFD" transform="translate(0,0)"/>
<path d="" fill="#FDFDFD" transform="translate(0,0)"/>
<path d="" fill="#FFFEFE" transform="translate(0,0)"/>
<path d="" fill="#FDFDFD" transform="translate(0,0)"/>
<path d="" fill="#FDFDFD" transform="translate(0,0)"/>
<path d="" fill="#FDFDFD" transform="translate(0,0)"/>
<path d="" fill="#FFFEFE" transform="translate(0,0)"/>
<path d="" fill="#FDFDFD" transform="translate(0,0)"/>
<path d="" fill="#FDFDFD" transform="translate(0,0)"/>
<path d="" fill="#FCFCFC" transform="translate(0,0)"/>
<path d="" fill="#FDFDFD" transform="translate(0,0)"/>
<path d="" fill="#FFFEFE" transform="translate(0,0)"/>
<path d="" fill="#FDFDFD" transform="translate(0,0)"/>
<path d="" fill="#FDFDFD" transform="translate(0,0)"/>
<path d="" fill="#FCFCFC" transform="translate(0,0)"/>
<path d="" fill="#FFFEFD" transform="translate(0,0)"/>
<path d="" fill="#FDFDFD" transform="translate(0,0)"/>
<path d="" fill="#FDFDFD" transform="translate(0,0)"/>
<path d="" fill="#FFFEFD" transform="translate(0,0)"/>
<path d="" fill="#FDFDFD" transform="translate(0,0)"/>
<path d="" fill="#FDFDFD" transform="translate(0,0)"/>
<path d="" fill="#FDFDFD" transform="translate(0,0)"/>
<path d="" fill="#FDFDFD" transform="translate(0,0)"/>
<path d="" fill="#FDFDFD" transform="translate(0,0)"/>
<path d="" fill="#FDFDFD" transform="translate(0,0)"/>
<path d="" fill="#FDFDFD" transform="translate(0,0)"/>
<path d="" fill="#FEFEFE" transform="translate(0,0)"/>
<path d="" fill="#FDFDFD" transform="translate(0,0)"/>
<path d="" fill="#FEFEFE" transform="translate(0,0)"/>
<path d="" fill="#FDFDFD" transform="translate(0,0)"/>
<path d="" fill="#FEFEFE" transform="translate(0,0)"/>
<path d="" fill="#FDFDFD" transform="translate(0,0)"/>
<path d="" fill="#FEFEFE" transform="translate(0,0)"/>
<path d="" fill="#FDFDFD" transform="translate(0,0)"/>
<path d="" fill="#FEFEFE" transform="translate(0,0)"/>
<path d="" fill="#FDFDFD" transform="translate(0,0)"/>
<path d="" fill="#FEFEFE" transform="translate(0,0)"/>
<path d="" fill="#FDFDFD" transform="translate(0,0)"/>
<path d="" fill="#FEFEFE" transform="translate(0,0)"/>
<path d="" fill="#FDFDFD" transform="translate(0,0)"/>
<path d="" fill="#FEFEFE" transform="translate(0,0)"/>
<path d="" fill="#FDFDFD" transform="translate(0,0)"/>
<path d="" fill="#FEFEFE" transform="translate(0,0)"/>
<path d="" fill="#FDFDFD" transform="translate(0,0)"/>
<path d="" fill="#FEFEFE" transform="translate(0,0)"/>
<path d="" fill="#FDFDFD" transform="translate(0,0)"/>
<path d="" fill="#FEFEFE" transform="translate(0,0)"/>
<path d="" fill="#FDFDFD" transform="translate(0,0)"/>
<path d="" fill="#FDFDFD" transform="translate(0,0)"/>
<path d="" fill="#FDFDFD" transform="translate(0,0)"/>
<path d="" fill="#FDFDFD" transform="translate(0,0)"/>
<path d="" fill="#FDFDFD" transform="translate(0,0)"/>
<path d="" fill="#FDFDFD" transform="translate(0,0)"/>
<path d="" fill="#FDFDFD" transform="translate(0,0)"/>
<path d="" fill="#FDFDFD" transform="translate(0,0)"/>
<path d="" fill="#FEFEFE" transform="translate(0,0)"/>
<path d="" fill="#FDFDFD" transform="translate(0,0)"/>
<path d="" fill="#FEFEFE" transform="translate(0,0)"/>
<path d="" fill="#FCFCFC" transform="translate(0,0)"/>
<path d="" fill="#FEFEFE" transform="translate(0,0)"/>
<path d="" fill="#FCFCFC" transform="translate(0,0)"/>
<path d="" fill="#FDFDFD" transform="translate(0,0)"/>
<path d="" fill="#FCFCFC" transform="translate(0,0)"/>
<path d="" fill="#FDFDFD" transform="translate(0,0)"/>
<path d="" fill="#FCFCFC" transform="translate(0,0)"/>
<path d="" fill="#FDFDFD" transform="translate(0,0)"/>
<path d="" fill="#FCFCFC" transform="translate(0,0)"/>
<path d="" fill="#FDFDFD" transform="translate(0,0)"/>
<path d="" fill="#FCFCFC" transform="translate(0,0)"/>
<path d="" fill="#FEFEFE" transform="translate(0,0)"/>
<path d="" fill="#FDFDFD" transform="translate(0,0)"/>
<path d="" fill="#FEFEFE" transform="translate(0,0)"/>
<path d="" fill="#FDFDFD" transform="translate(0,0)"/>
<path d="" fill="#FDFDFD" transform="translate(0,0)"/>
<path d="" fill="#FCFCFC" transform="translate(0,0)"/>
<path d="" fill="#FDFDFD" transform="translate(0,0)"/>
<path d="" fill="#FDFDFD" transform="translate(0,0)"/>
<path d="" fill="#FDFDFD" transform="translate(0,0)"/>
<path d="" fill="#FDFDFD" transform="translate(0,0)"/>
<path d="" fill="#FDFDFD" transform="translate(0,0)"/>
<path d="" fill="#FDFDFD" transform="translate(0,0)"/>
<path d="" fill="#FDFDFD" transform="translate(0,0)"/>
<path d="" fill="#FDFDFD" transform="translate(0,0)"/>
<path d="" fill="#FDFDFD" transform="translate(0,0)"/>
<path d="" fill="#FDFDFD" transform="translate(0,0)"/>
<path d="" fill="#FDFDFD" transform="translate(0,0)"/>
<path d="" fill="#FDFDFD" transform="translate(0,0)"/>
<path d="" fill="#FDFDFD" transform="translate(0,0)"/>
<path d="" fill="#FDFDFD" transform="translate(0,0)"/>
<path d="" fill="#FDFDFD" transform="translate(0,0)"/>
<path d="" fill="#FDFDFD" transform="translate(0,0)"/>
<path d="" fill="#FDFDFD" transform="translate(0,0)"/>
<path d="" fill="#FDFDFD" transform="translate(0,0)"/>
<path d="" fill="#FCFCFC" transform="translate(0,0)"/>
<path d="" fill="#FCFCFC" transform="translate(0,0)"/>
<path d="" fill="#FDFDFD" transform="translate(0,0)"/>
<path d="" fill="#FCFCFC" transform="translate(0,0)"/>
<path d="" fill="#FDFDFD" transform="translate(0,0)"/>
<path d="" fill="#FCFCFC" transform="translate(0,0)"/>
<path d="" fill="#FDFDFD" transform="translate(0,0)"/>
<path d="" fill="#FCFCFC" transform="translate(0,0)"/>
<path d="" fill="#FDFDFD" transform="translate(0,0)"/>
<path d="" fill="#FCFCFC" transform="translate(0,0)"/>
<path d="" fill="#FDFDFD" transform="translate(0,0)"/>
<path d="" fill="#FCFCFC" transform="translate(0,0)"/>
<path d="" fill="#FDFDFD" transform="translate(0,0)"/>
<path d="" fill="#FDFDFD" transform="translate(0,0)"/>
<path d="" fill="#FDFDFD" transform="translate(0,0)"/>
<path d="" fill="#FDFDFD" transform="translate(0,0)"/>
<path d="" fill="#FCFCFC" transform="translate(0,0)"/>
<path d="" fill="#FDFDFD" transform="translate(0,0)"/>
<path d="" fill="#FDFDFD" transform="translate(0,0)"/>
<path d="" fill="#FDFDFD" transform="translate(0,0)"/>
<path d="" fill="#FDFDFD" transform="translate(0,0)"/>
<path d="" fill="#FDFDFD" transform="translate(0,0)"/>
<path d="" fill="#FDFDFD" transform="translate(0,0)"/>
<path d="" fill="#FDFDFD" transform="translate(0,0)"/>
<path d="" fill="#FDFDFD" transform="translate(0,0)"/>
<path d="" fill="#FDFDFD" transform="translate(0,0)"/>
<path d="" fill="#FDFDFD" transform="translate(0,0)"/>
<path d="" fill="#FDFDFD" transform="translate(0,0)"/>
<path d="" fill="#FDFDFD" transform="translate(0,0)"/>
<path d="" fill="#FDFDFD" transform="translate(0,0)"/>
<path d="" fill="#FDFDFD" transform="translate(0,0)"/>
</svg>
